<svg width="22" height="22" viewBox="0 0 22 22" fill="none" xmlns="http://www.w3.org/2000/svg">
<path d="M5.88492 16.2523C3.84075 14.914 2.52075 12.8973 2.52075 11.1282C2.52075 8.12152 6.31575 4.43652 10.9999 4.43652C12.9158 4.43652 14.6941 5.05069 16.1241 6.00402" stroke="#E3E5EF" stroke-width="1.5" stroke-linecap="round" stroke-linejoin="round"/>
<path d="M18.1956 7.89282C19.0123 8.92866 19.4881 10.0745 19.4881 11.1287C19.4881 14.1354 15.6839 17.8204 10.9997 17.8204C10.1656 17.8204 9.35066 17.7012 8.58887 17.4904" stroke="#E3E5EF" stroke-width="1.5" stroke-linecap="round" stroke-linejoin="round"/>
<path d="M8.95194 13.1698C8.40652 12.6299 8.10127 11.8938 8.10402 11.1266C8.10036 9.52697 9.39467 8.22712 10.9952 8.22437C11.7652 8.22254 12.504 8.52779 13.0485 9.07229" stroke="#E3E5EF" stroke-width="1.5" stroke-linecap="round" stroke-linejoin="round"/>
<path d="M13.8502 11.6409C13.6357 12.8252 12.709 13.7538 11.5247 13.971" stroke="#E3E5EF" stroke-width="1.5" stroke-linecap="round" stroke-linejoin="round"/>
<path d="M18.2339 3.89575L3.77441 18.3553" stroke="#E3E5EF" stroke-width="1.5" stroke-linecap="round" stroke-linejoin="round"/>
</svg>
