<svg width="22" height="22" viewBox="0 0 22 22" fill="none" xmlns="http://www.w3.org/2000/svg">
<path d="M10.2905 19.0254C8.06111 19.0254 6.2691 18.3269 4.91452 16.93C3.57405 15.5331 2.90381 13.7834 2.90381 11.681C2.90381 9.32461 3.71515 7.37739 5.33783 5.83938C6.97462 4.30136 8.90772 3.53235 11.1371 3.53235C13.2113 3.53235 14.9257 4.14614 16.2803 5.37374C17.649 6.60133 18.3334 8.21695 18.3334 10.2206C18.3334 11.9279 17.9665 13.2261 17.2328 14.115C16.5131 15.004 15.6242 15.4485 14.5659 15.4485C13.4371 15.4485 12.6963 15.0252 12.3436 14.1785C12.0755 14.5454 11.6874 14.8488 11.1795 15.0886C10.6715 15.3144 10.1565 15.4273 9.6344 15.4273C8.70312 15.4273 7.92706 15.0957 7.30621 14.4325C6.68536 13.7693 6.37493 12.8804 6.37493 11.7657C6.37493 10.4534 6.79118 9.35988 7.62369 8.48505C8.45619 7.5961 9.46508 7.15163 10.6503 7.15163C11.2571 7.15163 11.7792 7.29979 12.2166 7.5961C12.654 7.89242 12.9433 8.24517 13.0844 8.65437L13.3383 7.34212H14.9469L13.8886 12.3795C13.6629 13.4942 13.938 14.0515 14.7141 14.0515C15.3773 14.0515 15.8994 13.727 16.2803 13.0779C16.6613 12.4289 16.8518 11.4623 16.8518 10.1783C16.8518 8.59793 16.3085 7.32801 15.2221 6.36851C14.1497 5.3949 12.781 4.9081 11.116 4.9081C9.28164 4.9081 7.70129 5.53601 6.37493 6.79182C5.06268 8.04763 4.40655 9.67736 4.40655 11.681C4.40655 13.4448 4.93568 14.884 5.99395 15.9988C7.06633 17.0994 8.49852 17.6497 10.2905 17.6497C11.7721 17.6497 13.0702 17.3745 14.185 16.8242V18.3269C12.9856 18.7926 11.6874 19.0254 10.2905 19.0254ZM9.86722 13.988C10.5304 13.988 11.1089 13.7623 11.6028 13.3108C12.1107 12.8451 12.4282 12.2666 12.5552 11.5752C12.6963 10.7286 12.5905 10.0231 12.2377 9.45865C11.8991 8.88013 11.377 8.59087 10.6715 8.59087C10.0083 8.59087 9.4298 8.82369 8.93594 9.28933C8.44208 9.74086 8.13166 10.3123 8.00466 11.0037C7.86356 11.8503 7.96939 12.5629 8.32215 13.1414C8.6749 13.7058 9.18993 13.988 9.86722 13.988Z" fill="#7D8CCC"/>
</svg>
