<svg width="142" height="41" viewBox="0 0 142 41" fill="none" xmlns="http://www.w3.org/2000/svg">
<path d="M2.42041 35.4839C5.12006 34.0646 7.72297 32.4786 10.3384 30.9128C12.1893 29.8077 13.9611 28.5753 15.641 27.2243C16.4706 26.5522 17.3176 25.9003 18.0272 25.094C18.8209 24.1925 18.8523 23.5734 18.1472 22.5986C17.5952 21.8375 16.8621 21.2621 16.1385 20.6757C15.332 20.0206 14.4743 19.4186 13.835 18.5827C13.0989 17.6235 13.0989 16.8968 13.9083 16.0141C15.0778 14.7383 16.5597 13.9258 18.1377 13.2614C18.5903 13.0696 18.7165 13.2833 18.7462 13.6996C18.8226 14.7913 19.337 15.6741 20.0342 16.4757C20.6502 17.1822 21.3973 17.739 22.1304 18.3129C22.8635 18.8868 23.5434 19.4374 24.0409 20.2125C24.7942 21.3868 24.7254 22.4583 23.8318 23.5157C23.1828 24.2574 22.4501 24.9215 21.6485 25.4948C17.2565 28.7496 12.4563 31.3307 7.69178 33.9633C5.61599 35.1096 2.99588 36.5475 0.887329 37.6704V36.3416C1.13531 36.1951 1.81062 35.8052 2.42041 35.4839Z" fill="black"/>
<path d="M0 0.833496V40.2909H30.504V0.833496H0ZM0.985666 39.3099V1.81915H29.5258V3.25241C27.4222 4.37375 24.6552 5.90371 22.5937 7.03752C17.8275 9.67166 13.0288 12.2496 8.64166 15.506C7.83987 16.0798 7.10718 16.7445 6.45824 17.4867C5.56304 18.5425 5.49596 19.6155 6.24928 20.7883C6.74677 21.5681 7.44704 22.1312 8.15976 22.6879C8.87249 23.2447 9.63979 23.8186 10.2543 24.5267C10.9529 25.3267 11.4676 26.2157 11.544 27.3027C11.5737 27.7176 11.7 27.9265 12.1523 27.741C13.7275 27.0766 15.2124 26.2625 16.3819 24.9883C17.1914 24.1056 17.1914 23.3773 16.455 22.4181C15.8143 21.5822 14.9578 20.9802 14.1517 20.3267C13.428 19.7403 12.6934 19.1648 12.1414 18.4022C11.4364 17.429 11.4692 16.8083 12.2614 15.9069C12.9711 15.1005 13.821 14.4486 14.6476 13.778C16.3271 12.4261 18.099 11.1931 19.9501 10.088C22.5595 8.52848 25.1685 6.93616 27.8682 5.51694C28.4482 5.20501 29.2407 4.75273 29.5308 4.58117V39.3099H0.985666Z" fill="black"/>
<path d="M127.41 30.0452C126.053 30.0957 125.997 29.1627 125.967 28.1822C125.876 25.1191 125.78 22.0561 125.676 18.9931C125.624 17.4708 125.615 17.4708 127.079 17.107C127.261 17.0632 127.49 17.0887 127.482 16.814C127.473 16.5104 127.249 16.4757 127.009 16.4796C126.498 16.4796 125.987 16.494 125.476 16.4979C123.465 16.5142 123.994 16.1683 123.228 17.9529C121.939 20.9649 120.682 23.9918 119.339 27.1804C119.195 26.9037 119.126 26.7984 119.081 26.6834C117.844 23.5424 116.594 20.4067 115.392 17.2509C115.16 16.6412 114.868 16.4141 114.212 16.4724C113.447 16.5123 112.68 16.5123 111.914 16.4724C111.652 16.4724 111.305 16.4541 111.282 16.7433C111.247 17.158 111.634 17.0796 111.914 17.107C113.04 17.1816 113.288 17.4361 113.215 18.4985C112.988 21.8088 112.754 25.1187 112.513 28.428C112.449 29.3374 112.216 30.0851 111.077 30.0466C110.876 30.0466 110.578 30.0048 110.61 30.356C110.639 30.6562 110.898 30.6745 111.119 30.6543C112.39 30.5345 113.669 30.5345 114.939 30.6543C115.196 30.6798 115.503 30.6688 115.485 30.3016C115.467 29.9956 115.176 30.0505 114.961 30.025C113.577 29.8431 113.391 29.7012 113.433 28.2952C113.506 25.7485 113.646 23.2022 113.764 20.6449C113.792 20.0464 113.844 19.4478 113.886 18.8497C114.126 19.099 114.307 19.3987 114.417 19.7264C115.701 22.9511 116.98 26.1796 118.277 29.3995C118.379 29.6502 118.406 30.0596 118.717 30.0866C119.072 30.1198 119.081 29.6959 119.176 29.4558C120.567 26.1377 121.94 22.8111 123.337 19.4954C123.448 19.2332 123.45 18.8512 123.903 18.7386C123.927 19.0735 123.957 19.3843 123.967 19.697C124.045 22.4083 124.12 25.1206 124.19 27.8333C124.232 29.5539 124.161 29.6376 122.499 30.0288C122.317 30.0721 122.095 30.0688 122.109 30.3396C122.122 30.5817 122.306 30.6654 122.508 30.6505C124.131 30.534 125.76 30.534 127.382 30.6505C127.588 30.6654 127.779 30.587 127.797 30.3541C127.815 30.1212 127.592 30.0394 127.41 30.0452ZM69.3409 30.0452C68.3223 30.0702 68.0112 29.4991 68.0131 28.5897C68.0203 25.237 68.0203 21.8853 68.0131 18.5351C68.0131 17.6781 68.3004 17.1142 69.2863 17.1253C69.5355 17.1253 69.9757 17.1999 69.9047 16.7615C69.8465 16.3978 69.4537 16.4796 69.1771 16.5032C67.8103 16.6268 66.4351 16.6268 65.0683 16.5032C64.779 16.4757 64.3098 16.354 64.2807 16.7851C64.2479 17.2562 64.7499 17.0945 65.0227 17.1489C65.4775 17.2273 65.9159 17.2778 66.0795 17.8071C66.2615 18.3695 66.1832 18.8512 65.7303 19.2842C65.2247 19.7683 64.7608 20.299 64.2861 20.8124L58.6657 26.8619C58.6657 23.8917 58.6657 21.2233 58.6657 18.5404C58.6657 17.6416 59.0294 17.0762 60.0335 17.1109C60.2645 17.1195 60.61 17.1599 60.5573 16.7558C60.5209 16.4651 60.2481 16.4613 60.028 16.4829C58.5024 16.6157 56.9682 16.6157 55.4425 16.4829C55.2134 16.4666 54.966 16.4704 54.9605 16.787C54.9551 17.1032 55.237 17.1123 55.4444 17.0998C56.5921 17.0286 56.8558 17.7416 56.8576 18.6751C56.8649 21.9305 56.8649 25.1865 56.8576 28.4425C56.8576 29.3701 56.6012 30.0904 55.4553 30.0341C55.2516 30.023 54.9642 29.9995 54.966 30.3377C54.9678 30.676 55.217 30.6615 55.4444 30.6452C56.9711 30.5259 58.5049 30.5259 60.0317 30.6452C60.2881 30.6668 60.5773 30.6582 60.5664 30.2814C60.5482 29.9413 60.2426 30.0413 60.048 30.0288C59.4842 29.9903 58.9567 29.9287 58.7748 29.2647C58.5929 28.6008 58.6202 27.9916 59.164 27.4258C61.3467 25.1374 63.4749 22.8077 65.6303 20.4991C65.763 20.3591 65.8449 20.0772 66.176 20.2066C66.176 22.9347 66.165 25.6888 66.176 28.4314C66.176 29.4009 65.9213 30.0688 64.7845 30.0197C64.5789 30.0197 64.2752 30.0014 64.2733 30.3103C64.2733 30.6745 64.5953 30.6615 64.839 30.6413C66.3334 30.5177 67.8356 30.5177 69.33 30.6413C69.5846 30.6635 69.9011 30.6779 69.9157 30.3267C69.932 29.9412 69.5573 30.0322 69.3372 30.0375L69.3409 30.0452ZM109.11 27.1876C108.769 27.1058 108.735 27.5514 108.639 27.7968C108.195 28.9429 107.503 29.8137 106.177 29.8902C105.317 29.9403 104.454 29.9441 103.593 29.9013C102.742 29.8575 102.216 29.3557 102.191 28.5026C102.143 26.9403 102.167 25.3742 102.161 23.8099C102.161 23.5477 102.183 23.3312 102.509 23.222C104.277 22.6345 105.952 23.4495 106.538 25.212C106.616 25.4487 106.622 25.7904 106.949 25.7576C107.312 25.7177 107.193 25.3612 107.184 25.1321C107.136 23.8879 107.016 22.6455 107.227 21.4051C107.269 21.1631 107.314 20.8393 106.993 20.7739C106.723 20.7195 106.639 21.0029 106.585 21.2194C106.34 22.2053 105.63 22.5017 104.711 22.493C104.073 22.493 103.438 22.493 102.796 22.493C102.396 22.493 102.149 22.3453 102.156 21.867C102.178 20.5573 102.167 19.2496 102.156 17.9399C102.156 17.5636 102.3 17.2889 102.674 17.2687C104.011 17.1999 105.364 17.0541 106.661 17.4982C107.533 17.7965 107.835 18.6058 108.137 19.3881C108.202 19.557 108.319 19.7774 108.542 19.71C108.766 19.6427 108.708 19.3954 108.713 19.2188C108.733 18.5168 108.713 17.8148 108.755 17.1123C108.784 16.6105 108.613 16.4613 108.104 16.4724C106.605 16.5085 105.103 16.4849 103.602 16.4849H99.0983C98.8221 16.4849 98.4453 16.4012 98.4415 16.8198C98.4415 17.1835 98.8057 17.1234 99.0367 17.1161C100.011 17.0887 100.31 17.6507 100.319 18.5076C100.319 20.0719 100.337 21.6361 100.337 23.2003C100.337 25.0191 100.337 26.8383 100.315 28.6571C100.306 29.3846 100.115 29.9884 99.2036 30.0322C98.9347 30.0452 98.4179 29.8705 98.4545 30.3488C98.491 30.8271 99.0145 30.6687 99.3186 30.6413C101.936 30.3959 104.55 30.7125 107.167 30.6745C108.866 30.649 108.864 30.687 109.079 29.0372C109.124 28.6898 109.231 28.3496 109.261 28.0022C109.293 27.713 109.543 27.2949 109.106 27.1804L109.11 27.1876ZM141.574 30.0452C140.604 29.987 140.241 29.3008 139.949 28.519C139.414 27.0856 138.858 25.6576 138.327 24.2261C137.376 21.689 136.432 19.1481 135.477 16.6124C135.404 16.4194 135.395 16.1394 135.104 16.1101C134.724 16.074 134.771 16.4286 134.669 16.634C134.584 16.8395 134.509 17.0488 134.445 17.2615C133.056 21.0606 131.665 24.8603 130.274 28.6609C130.015 29.3682 129.692 30.0177 128.761 30.0048C128.549 30.0048 128.163 29.9687 128.206 30.356C128.25 30.7433 128.625 30.689 128.892 30.6562C130.035 30.536 131.188 30.536 132.332 30.6562C132.59 30.6798 132.983 30.7924 133.012 30.3632C133.041 29.934 132.605 30.0505 132.368 29.9995C130.98 29.7194 130.886 29.5756 131.308 28.2226C131.373 28.0094 131.444 27.7987 131.513 27.586C132.212 25.4593 132.212 25.4593 134.48 25.4579C136.748 25.4559 136.739 25.4579 137.517 27.562C137.607 27.8006 137.699 28.0388 137.787 28.2789C138.29 29.6338 138.232 29.7339 136.808 29.934C136.561 29.9706 136.262 29.9485 136.262 30.3233C136.273 30.6307 136.524 30.6615 136.746 30.6543C138.34 30.6052 139.933 30.4869 141.526 30.6543C141.723 30.676 141.943 30.6307 141.989 30.4089C142.057 30.0885 141.796 30.0524 141.57 30.0375L141.574 30.0452ZM135.753 24.741C134.862 24.7063 133.969 24.7227 133.078 24.741C132.701 24.741 132.519 24.6173 132.654 24.2406C133.21 22.6638 133.78 21.0924 134.418 19.3136L136.222 24.0553C136.39 24.4975 136.342 24.7573 135.75 24.7337L135.753 24.741ZM97.3084 15.6462C97.0668 15.6135 96.9846 15.8175 96.9249 15.9994C96.7935 16.4012 96.5029 16.4887 96.1151 16.4868C93.145 16.4757 90.1767 16.4868 87.2026 16.4777C86.8807 16.4777 86.5314 16.5065 86.4532 16.072C86.4132 15.8411 86.3914 15.6044 86.0894 15.6246C85.8257 15.6409 85.7256 15.8445 85.6638 16.074C85.3801 17.0526 85.0927 18.0303 84.8016 19.0076C84.7362 19.2313 84.6689 19.4791 84.9253 19.597C85.26 19.75 85.3655 19.4406 85.471 19.2332C86.3477 17.5054 87.812 17.0271 89.6311 17.2032C90.1329 17.2509 90.3841 17.3726 90.3822 17.9182C90.3615 21.4614 90.3504 25.0051 90.3495 28.5498C90.3495 29.4938 90.0204 30.0832 88.9506 30.0269C88.716 30.0139 88.2794 29.9268 88.3267 30.3906C88.3613 30.727 88.6905 30.6798 88.947 30.6635C90.4741 30.5379 92.009 30.5379 93.5361 30.6635C93.8017 30.689 94.2054 30.7635 94.2199 30.3671C94.2348 29.9706 93.8162 30.0178 93.5544 30.0211C92.5012 30.0341 92.1721 29.4538 92.1846 28.4988C92.2048 26.7743 92.1846 25.0431 92.1846 23.3259V19.6879C92.1846 17.1416 92.1846 17.1763 94.7655 17.1979C95.6753 17.2071 96.1935 17.6238 96.5154 18.3984C96.6222 18.6645 96.7122 18.9373 96.7849 19.2149C96.8373 19.417 96.921 19.5897 97.1486 19.5787C97.4104 19.5662 97.3902 19.3314 97.4214 19.1495C97.6033 18.1367 97.547 17.1123 97.5706 16.0937C97.5797 15.883 97.5432 15.6775 97.305 15.6429L97.3084 15.6462ZM53.2908 27.0327C52.7851 26.8763 52.7451 27.5422 52.5632 27.8694C50.8989 30.84 47.714 31.3655 45.2002 29.0646C42.4045 26.5015 42.2663 20.9452 44.931 18.2656C47.3211 15.8647 50.8534 16.2159 52.6578 19.0369C52.7481 19.2043 52.856 19.3617 52.9797 19.506C53.0072 19.5354 53.0409 19.558 53.0782 19.5729C53.1156 19.5873 53.1558 19.5936 53.1958 19.5907C53.2358 19.5878 53.2747 19.5763 53.3097 19.5565C53.3447 19.5368 53.3749 19.5099 53.3981 19.4772C53.7728 19.0278 53.1816 16.9016 52.6069 16.7086C51.216 16.2279 49.7459 16.0177 48.276 16.0903C46.2743 16.1827 44.3896 17.0603 43.0299 18.5322C41.6702 20.004 40.945 21.9527 41.0112 23.9552C41.0931 27.957 44.3435 31.0364 48.5215 31.0763C48.9992 31.0599 49.4758 31.02 49.9494 30.956C50.5449 30.8511 51.1321 30.7034 51.7065 30.5143C53.2962 29.9812 53.4072 29.8248 53.4672 28.135C53.4817 27.7515 53.7237 27.1621 53.2944 27.0293L53.2908 27.0327ZM83.8158 27.0327C83.2829 26.8782 83.2374 27.6024 83.0373 27.9551C81.4694 30.7308 78.6301 31.3164 76.0963 29.3591C72.9914 26.96 72.6295 21.216 75.4033 18.3493C77.8334 15.8372 81.3767 16.1919 83.2247 19.1317C83.2961 19.2717 83.3881 19.4002 83.4975 19.5132C83.5256 19.5416 83.5597 19.5633 83.5973 19.5763C83.6348 19.5893 83.6749 19.5941 83.7145 19.5893C83.754 19.5849 83.792 19.5715 83.8257 19.5498C83.8593 19.5286 83.8876 19.4998 83.9086 19.4661C84.3124 18.9205 83.7358 16.9198 83.0937 16.7105C81.6433 16.2063 80.105 16.0047 78.5737 16.1173C76.5956 16.2727 74.755 17.1898 73.4401 18.676C72.1252 20.1618 71.4387 22.1004 71.5254 24.0827C71.7073 28.0734 74.9195 31.0455 79.1649 31.0561C80.1052 31.1292 81.0965 30.8963 82.0751 30.598C83.2429 30.2434 84.2342 29.7411 83.9904 28.224C83.9377 27.8059 84.3524 27.1804 83.8195 27.0235L83.8158 27.0327ZM105.59 13.7986C105.662 13.7981 105.733 13.7904 105.803 13.7745C105.867 13.7582 105.929 13.7317 105.985 13.6966C106.048 13.6571 106.105 13.6105 106.156 13.5566C106.215 13.4907 106.268 13.4195 106.314 13.3434L106.79 12.5741C106.881 12.5851 106.972 12.5904 107.061 12.5924C107.151 12.5943 107.244 12.5924 107.314 12.5924V13.1616C107.316 13.2453 107.312 13.3285 107.3 13.4108C107.295 13.4613 107.278 13.5099 107.251 13.5527C107.228 13.5855 107.193 13.6081 107.154 13.6167C107.104 13.6278 107.052 13.6326 107 13.6312H106.945V13.7659L107.244 13.7548H107.491H107.724L108.024 13.7659V13.6254H107.953C107.908 13.6268 107.864 13.6196 107.822 13.6057C107.785 13.5907 107.755 13.5628 107.738 13.5272C107.713 13.4762 107.697 13.4204 107.693 13.3636C107.683 13.2708 107.679 13.177 107.68 13.0836V13.0307C107.68 13.0052 107.68 12.9782 107.68 12.947V12.8454C107.68 12.8089 107.68 12.7742 107.68 12.7381V11.8942C107.68 11.8413 107.68 11.7884 107.68 11.7359V11.5901C107.68 11.5468 107.68 11.5175 107.68 11.5011C107.679 11.4106 107.683 11.3202 107.693 11.2302C107.698 11.1744 107.714 11.12 107.74 11.07C107.758 11.0358 107.787 11.0089 107.823 10.9954C107.865 10.9819 107.909 10.9757 107.953 10.9771H108.007L107.997 10.8299C107.904 10.8299 107.815 10.841 107.725 10.8443H107.464C107.424 10.8443 107.376 10.8443 107.32 10.8443H107.154H107H106.891C106.73 10.841 106.571 10.866 106.419 10.9189C106.295 10.9617 106.18 11.0277 106.081 11.1138C105.997 11.1864 105.929 11.2769 105.882 11.3779C105.835 11.4794 105.811 11.5896 105.81 11.7013C105.808 11.8018 105.823 11.9019 105.854 11.9977C105.882 12.0794 105.923 12.1564 105.976 12.2252C106.026 12.2897 106.088 12.345 106.158 12.3888C106.227 12.435 106.304 12.4716 106.383 12.498L106.019 13.0543C105.937 13.1779 105.867 13.2799 105.805 13.3617C105.754 13.4296 105.698 13.4931 105.637 13.5527C105.596 13.5927 105.548 13.6249 105.496 13.6494C105.452 13.6658 105.406 13.6745 105.359 13.6749H105.339V13.7928L105.464 13.8073L105.59 13.7986ZM106.352 12.116C106.311 12.0612 106.279 11.9996 106.259 11.9341C106.236 11.8495 106.224 11.7619 106.225 11.6738C106.224 11.5848 106.243 11.4963 106.281 11.4155C106.318 11.3399 106.371 11.2726 106.436 11.2191C106.508 11.1619 106.59 11.1196 106.678 11.0936C106.778 11.0618 106.883 11.0464 106.989 11.0483C107.044 11.0455 107.098 11.0455 107.153 11.0483L107.311 11.07C107.311 11.1321 107.311 11.1903 107.311 11.2519C107.311 11.3139 107.311 11.3664 107.311 11.4337C107.311 11.5011 107.311 11.5521 107.311 11.6156C107.311 11.6791 107.311 11.7465 107.311 11.8211V12.3542L107.202 12.3705C107.151 12.3763 107.1 12.3797 107.049 12.3797C106.981 12.3797 106.914 12.3797 106.847 12.3705C106.781 12.3638 106.717 12.3503 106.654 12.3306C106.594 12.3118 106.536 12.2859 106.483 12.2522C106.432 12.2118 106.389 12.1627 106.356 12.1069L106.352 12.116ZM102.738 13.7438H102.971L103.251 13.7548V13.6148H103.196C103.133 13.6187 103.07 13.6047 103.014 13.5749C102.995 13.5571 102.98 13.5349 102.971 13.5099C102.962 13.4854 102.959 13.4589 102.962 13.4329C102.968 13.3507 102.986 13.2698 103.014 13.1928C103.049 13.0798 103.116 12.9017 103.213 12.6563H103.471H103.733H104.049H104.262L104.464 13.2838C104.475 13.3199 104.484 13.3526 104.49 13.38C104.495 13.4041 104.498 13.4281 104.499 13.4527C104.501 13.4762 104.498 13.4998 104.489 13.5215C104.479 13.5431 104.465 13.5624 104.446 13.5763C104.383 13.6052 104.314 13.6172 104.246 13.611H104.208V13.751L104.499 13.7404H104.75H104.974L105.265 13.751V13.611H105.219C105.159 13.6143 105.099 13.5984 105.048 13.5657C104.984 13.4964 104.936 13.4146 104.906 13.3256C104.815 13.1 104.69 12.7627 104.531 12.3142C104.371 11.8649 104.204 11.3702 104.026 10.826H103.673C103.457 11.4034 103.252 11.9322 103.056 12.4124C102.861 12.8926 102.726 13.2126 102.651 13.3728C102.617 13.445 102.566 13.5075 102.501 13.5547C102.431 13.5941 102.351 13.6143 102.27 13.6129V13.751L102.538 13.7404L102.738 13.7438ZM103.764 11.2119L104.184 12.4379H104.093H103.729H103.415H103.302L103.764 11.2119ZM131.23 13.7385H131.913H132.235H132.417L132.59 13.7476L132.736 13.7582C132.77 13.7611 132.805 13.7659 132.839 13.7731C132.888 13.7851 132.935 13.8029 132.98 13.8255C133.029 13.8549 133.071 13.8939 133.105 13.9401C133.147 14.0021 133.18 14.07 133.201 14.1421C133.232 14.2446 133.25 14.35 133.256 14.4568H133.407V14.2297C133.407 14.2129 133.407 14.1879 133.407 14.1551C133.407 14.1219 133.407 14.0786 133.407 14.0204C133.407 13.9622 133.407 13.891 133.418 13.8073C133.428 13.724 133.428 13.6254 133.438 13.4984L133.234 13.5166C133.196 13.5224 133.156 13.5224 133.118 13.5166C133.103 13.5152 133.089 13.5104 133.077 13.5022C133.065 13.4945 133.055 13.4839 133.048 13.4709C133.031 13.4315 133.022 13.3887 133.023 13.3454C133.023 13.2891 133.023 13.2145 133.023 13.1202V12.9999C133.023 12.9542 133.023 12.9037 133.023 12.8454C133.023 12.7872 133.023 12.7343 133.023 12.6871V11.8904C133.023 11.8432 133.023 11.7903 133.023 11.734C133.023 11.6777 133.023 11.6286 133.023 11.5882V11.4992C133.011 11.3558 133.03 11.211 133.079 11.0753C133.103 11.0402 133.135 11.0123 133.173 10.9949C133.211 10.9771 133.254 10.9704 133.296 10.9752H133.35V10.8318C133.252 10.8318 133.159 10.8429 133.074 10.8443C132.988 10.8463 132.908 10.8443 132.834 10.8443C132.759 10.8443 132.661 10.8443 132.574 10.8443C132.486 10.8443 132.392 10.8443 132.304 10.8318V10.9752H132.361C132.404 10.9704 132.446 10.9762 132.486 10.993C132.526 11.0094 132.56 11.0358 132.586 11.07C132.64 11.2317 132.66 11.4025 132.645 11.5718V12.0029L132.635 13.5056C132.363 13.5056 132.117 13.5181 131.899 13.5181H131.521H131.131L131.12 12.0159V11.5521C131.105 11.3919 131.126 11.2307 131.179 11.0791C131.206 11.0459 131.241 11.0199 131.281 11.0041C131.32 10.9882 131.363 10.9829 131.406 10.9882H131.461V10.8443C131.37 10.8443 131.279 10.8554 131.193 10.8573C131.108 10.8592 131.02 10.8573 130.937 10.8573C130.853 10.8573 130.782 10.8573 130.695 10.8573C130.607 10.8573 130.513 10.8573 130.416 10.8443V10.9882H130.469C130.512 10.9834 130.555 10.9906 130.593 11.0089C130.632 11.0272 130.664 11.056 130.687 11.0916C130.74 11.2389 130.76 11.3948 130.747 11.5502V11.6339C130.747 11.6705 130.747 11.7138 130.747 11.7686C130.747 11.823 130.747 11.8668 130.747 11.9106V12.6977C130.747 12.7454 130.747 12.7978 130.747 12.856C130.747 12.9142 130.747 12.9619 130.747 13.0018V13.0928C130.76 13.2405 130.741 13.3891 130.691 13.5292C130.668 13.5648 130.635 13.5936 130.596 13.6119C130.558 13.6302 130.515 13.6374 130.473 13.6331H130.404V13.7745H130.844L131.23 13.7385ZM134.287 13.7385H134.535L134.831 13.749V13.6076H134.76C134.716 13.6129 134.67 13.6052 134.63 13.5859C134.589 13.5667 134.555 13.5364 134.531 13.4984C134.488 13.4137 134.467 13.3199 134.471 13.2256C134.738 12.9542 135.016 12.6799 135.28 12.4215C135.544 12.1632 135.826 11.8942 136.102 11.6339V13.0706C136.116 13.2212 136.095 13.3733 136.043 13.5147C136.016 13.5484 135.981 13.5749 135.942 13.5912C135.903 13.6071 135.859 13.6129 135.817 13.6076H135.746V13.749L136.043 13.7385H136.292H136.524L136.824 13.749V13.609H136.752C136.71 13.6134 136.668 13.6061 136.63 13.5883C136.592 13.5705 136.56 13.5421 136.537 13.5075C136.487 13.367 136.467 13.2174 136.479 13.0692V12.9763C136.479 12.9378 136.479 12.8907 136.479 12.8325C136.479 12.7742 136.479 12.7218 136.479 12.6742V11.8778C136.479 11.8302 136.479 11.7778 136.479 11.721C136.479 11.6647 136.479 11.6156 136.479 11.5757V11.4867C136.467 11.3428 136.487 11.198 136.537 11.0628C136.56 11.0276 136.592 10.9997 136.63 10.9819C136.668 10.9641 136.71 10.9574 136.752 10.9627H136.808V10.8188C136.71 10.8188 136.626 10.8299 136.532 10.8318C136.437 10.8337 136.364 10.8318 136.292 10.8318C136.219 10.8318 136.119 10.8318 136.031 10.8318C135.944 10.8318 135.85 10.8318 135.762 10.8188V10.9627H135.817C135.859 10.9574 135.903 10.9632 135.942 10.9795C135.982 10.9964 136.017 11.0228 136.043 11.0575C136.084 11.1321 136.106 11.2167 136.104 11.3029C135.837 11.5738 135.558 11.8485 135.295 12.1069C135.031 12.3653 134.749 12.6361 134.473 12.8964V11.5266C134.458 11.3664 134.478 11.2052 134.531 11.0536C134.558 11.0204 134.593 10.9945 134.633 10.9786C134.673 10.9627 134.716 10.9574 134.758 10.9627H134.813V10.8188C134.722 10.8188 134.631 10.8299 134.545 10.8318C134.46 10.8337 134.363 10.8318 134.289 10.8318C134.214 10.8318 134.134 10.8318 134.047 10.8318C133.96 10.8318 133.865 10.8318 133.767 10.8188V10.9627H133.822C133.864 10.9579 133.907 10.9651 133.945 10.9834C133.984 11.0017 134.016 11.0305 134.04 11.0666C134.092 11.2139 134.112 11.3707 134.1 11.5266V11.6084C134.1 11.645 134.1 11.6902 134.1 11.7431C134.1 11.7956 134.1 11.8432 134.1 11.8865V12.6742C134.1 12.7218 134.1 12.7742 134.1 12.8325C134.1 12.8907 134.1 12.9378 134.1 12.9763V13.0692C134.113 13.2179 134.092 13.367 134.041 13.5075C134.018 13.5426 133.986 13.571 133.948 13.5893C133.91 13.6071 133.867 13.6138 133.825 13.609H133.756V13.749L134.058 13.7385H134.287ZM100.341 13.7385C100.45 13.7385 100.586 13.7385 100.752 13.7385C100.917 13.7385 101.03 13.749 101.09 13.749C101.373 13.763 101.652 13.6826 101.883 13.52C101.978 13.4507 102.054 13.3593 102.106 13.2535C102.157 13.1481 102.183 13.0316 102.18 12.9142C102.183 12.8286 102.169 12.7425 102.138 12.6626C102.106 12.5823 102.059 12.5096 101.998 12.449C101.844 12.3152 101.654 12.2296 101.452 12.2031C101.605 12.128 101.74 12.0207 101.849 11.8884C101.93 11.7768 101.972 11.6411 101.969 11.503C101.972 11.4049 101.951 11.3077 101.909 11.2196C101.866 11.1316 101.802 11.0551 101.723 10.9973C101.527 10.8645 101.292 10.8005 101.056 10.8155L100.783 10.8246C100.644 10.8246 100.526 10.8246 100.432 10.8246H100.175C100.091 10.8246 100.006 10.8246 99.9186 10.8097V10.9536H99.9441C100.027 10.9444 100.111 10.9685 100.177 11.0209C100.228 11.0912 100.252 11.1782 100.242 11.2649V11.6286C100.242 11.7412 100.242 11.8596 100.242 11.9794V12.538C100.242 12.6106 100.242 12.7199 100.242 12.8397C100.242 13.3511 100.148 13.6057 99.9658 13.6057H99.9258H99.8989V13.7438L100.168 13.7312L100.341 13.7385ZM100.613 11.6955C100.613 11.454 100.613 11.2408 100.624 11.0589C100.694 11.0483 100.755 11.0392 100.806 11.0334C100.857 11.0281 100.91 11.0334 100.952 11.0334C101.118 11.0238 101.281 11.0777 101.408 11.1845C101.464 11.2369 101.508 11.3009 101.537 11.3717C101.565 11.4429 101.578 11.5194 101.574 11.5959C101.575 11.6989 101.549 11.8004 101.497 11.8904C101.442 11.9871 101.364 12.0698 101.272 12.1324C101.212 12.1324 101.147 12.143 101.081 12.1468H100.865H100.701H100.601C100.601 12.0867 100.604 11.9394 100.608 11.6974L100.613 11.6955ZM100.613 12.5818C100.613 12.4687 100.613 12.385 100.613 12.3268H100.795H100.935C101.158 12.3099 101.379 12.3628 101.57 12.4778C101.64 12.5317 101.696 12.602 101.732 12.6828C101.769 12.7632 101.784 12.8517 101.778 12.9397C101.783 13.0244 101.769 13.1096 101.737 13.1885C101.706 13.2669 101.657 13.3381 101.596 13.3964C101.448 13.5138 101.262 13.572 101.074 13.56C100.999 13.56 100.924 13.5547 100.85 13.5436C100.771 13.5311 100.694 13.5138 100.617 13.4911C100.617 13.3271 100.617 13.1981 100.617 13.1019C100.617 13.0052 100.617 12.92 100.617 12.8325C100.595 12.7762 100.597 12.6944 100.599 12.5832L100.613 12.5818ZM112.858 13.3401C112.992 13.4955 113.159 13.6196 113.346 13.7038C113.536 13.7866 113.742 13.8284 113.95 13.8255C114.129 13.8241 114.306 13.7904 114.473 13.7255C114.642 13.6629 114.798 13.5691 114.932 13.4493C115.095 13.3045 115.224 13.1264 115.31 12.9272C115.399 12.7242 115.444 12.5048 115.443 12.2835C115.444 12.0665 115.402 11.8519 115.317 11.6522C115.234 11.4544 115.111 11.2764 114.954 11.1301C114.827 11.0084 114.676 10.9141 114.51 10.8535C114.331 10.7914 114.143 10.7611 113.953 10.7645C113.767 10.764 113.581 10.7996 113.408 10.8698C113.224 10.9434 113.057 11.0522 112.915 11.1908C112.774 11.3288 112.661 11.4939 112.584 11.6758C112.502 11.8692 112.461 12.077 112.462 12.2868C112.459 12.6761 112.599 13.0533 112.857 13.3454L112.858 13.3401ZM113.188 11.3173C113.275 11.2095 113.386 11.1234 113.512 11.0661C113.639 11.0094 113.777 10.9824 113.915 10.9882C114.065 10.9863 114.214 11.02 114.349 11.0864C114.484 11.1532 114.6 11.2509 114.69 11.3722C114.904 11.6522 115.012 11.9986 114.997 12.3503C115.016 12.6761 114.919 12.9984 114.725 13.2602C114.638 13.3699 114.528 13.4575 114.401 13.5157C114.275 13.5744 114.136 13.6018 113.997 13.5965C113.847 13.598 113.697 13.5628 113.563 13.495C113.428 13.4267 113.312 13.3276 113.224 13.2053C113.01 12.9167 112.901 12.5625 112.916 12.2031C112.9 11.8846 112.998 11.5704 113.193 11.3173H113.188ZM137.197 13.7895C137.269 13.789 137.34 13.7813 137.41 13.7659C137.474 13.749 137.536 13.7226 137.592 13.6875C137.655 13.6485 137.712 13.6013 137.763 13.5474C137.823 13.482 137.876 13.4108 137.921 13.3348L138.414 12.5616C138.505 12.5726 138.596 12.5779 138.685 12.5798C138.775 12.5818 138.867 12.5798 138.938 12.5798V13.149C138.94 13.2323 138.935 13.3155 138.924 13.3983C138.918 13.4488 138.902 13.4974 138.875 13.5402C138.852 13.5725 138.817 13.5951 138.778 13.6037C138.727 13.6153 138.675 13.6201 138.623 13.6182H138.569V13.7529L138.867 13.7418H139.115H139.347L139.647 13.7529V13.6129H139.577C139.532 13.6138 139.488 13.6071 139.446 13.5927C139.409 13.5782 139.379 13.5503 139.362 13.5147C139.337 13.4632 139.321 13.4079 139.316 13.3511C139.307 13.2578 139.302 13.1644 139.304 13.0706V13.0182C139.304 12.9927 139.304 12.9652 139.304 12.9345V12.8325C139.304 12.7964 139.304 12.7617 139.304 12.7252V11.8812C139.304 11.8283 139.304 11.7758 139.304 11.7229V11.5776C139.304 11.5338 139.304 11.505 139.304 11.4886C139.302 11.3977 139.307 11.3072 139.316 11.2172C139.322 11.1614 139.338 11.107 139.363 11.0575C139.381 11.0228 139.411 10.9964 139.447 10.9829C139.489 10.9689 139.533 10.9632 139.577 10.9646H139.631L139.62 10.8174C139.528 10.8174 139.438 10.828 139.349 10.8318H139.087C139.047 10.8318 139 10.8318 138.943 10.8318H138.778H138.623H138.514C138.354 10.828 138.194 10.8535 138.043 10.9064C137.919 10.9487 137.804 11.0151 137.705 11.1008C137.62 11.1739 137.552 11.2639 137.506 11.3654C137.459 11.4665 137.435 11.5766 137.434 11.6883C137.432 11.7888 137.447 11.8894 137.477 11.9851C137.506 12.0616 137.546 12.1333 137.596 12.1978C137.646 12.2628 137.708 12.3181 137.778 12.3614C137.848 12.4076 137.923 12.4442 138.003 12.4706L137.639 13.0273C137.558 13.151 137.486 13.2525 137.425 13.3348C137.373 13.4021 137.318 13.4661 137.257 13.5258C137.216 13.5657 137.168 13.598 137.116 13.622C137.072 13.6389 137.026 13.647 136.979 13.6475H136.959V13.7659L137.085 13.7803L137.197 13.7895ZM137.959 12.1069C137.918 12.052 137.887 11.9904 137.867 11.925C137.843 11.8403 137.831 11.7527 137.832 11.6647C137.831 11.5757 137.851 11.4876 137.889 11.4063C137.925 11.3308 137.978 11.2634 138.043 11.21C138.115 11.1532 138.197 11.1104 138.285 11.0844C138.386 11.0527 138.491 11.0373 138.596 11.0392C138.651 11.0363 138.705 11.0363 138.76 11.0392L138.918 11.0608C138.918 11.1229 138.918 11.1811 138.918 11.2427C138.918 11.3048 138.918 11.3572 138.918 11.4246V11.6065C138.918 11.6685 138.918 11.7373 138.918 11.8119V12.345L138.809 12.3614C138.758 12.3677 138.707 12.3705 138.656 12.3705C138.589 12.3705 138.521 12.3705 138.456 12.3614C138.391 12.3551 138.326 12.3417 138.263 12.3215C138.202 12.3032 138.144 12.2767 138.09 12.243C138.043 12.2045 138.002 12.1588 137.971 12.1069H137.959ZM125.425 13.7346H125.724C125.825 13.7346 125.925 13.7346 126.025 13.7457V13.611H126.016H125.957C125.91 13.6172 125.863 13.6129 125.818 13.5994C125.773 13.5855 125.731 13.5624 125.696 13.5311C125.64 13.4069 125.617 13.2698 125.633 13.1346V12.5159L125.849 12.5361H125.993C126.29 12.5548 126.584 12.4692 126.824 12.294C126.922 12.2127 127 12.1093 127.051 11.9924C127.102 11.8759 127.125 11.7484 127.119 11.6209C127.122 11.5093 127.1 11.3977 127.053 11.2957C127.006 11.1941 126.937 11.1042 126.85 11.0334C126.645 10.8766 126.391 10.7972 126.133 10.8097L125.86 10.8188C125.72 10.8188 125.6 10.8188 125.496 10.8188H125.223C125.13 10.8188 125.041 10.8188 124.945 10.8044V10.9483H124.962C125.045 10.9391 125.128 10.9627 125.194 11.0137C125.245 11.0839 125.267 11.1701 125.258 11.2557V12.5288C125.258 12.5924 125.258 12.6742 125.258 12.7781C125.258 12.8815 125.258 12.9508 125.258 12.9888C125.271 13.1567 125.251 13.3252 125.2 13.4854C125.177 13.5234 125.144 13.5542 125.104 13.5739C125.065 13.5936 125.02 13.6013 124.976 13.5965H124.929H124.896V13.7293L125.211 13.7183L125.425 13.7346ZM125.633 11.6228C125.633 11.441 125.633 11.2485 125.633 11.0647C125.687 11.0647 125.74 11.0483 125.796 11.0426C125.853 11.0373 125.909 11.0426 125.978 11.0426C126.173 11.0344 126.363 11.0993 126.511 11.2244C126.576 11.2846 126.628 11.3577 126.662 11.4395C126.696 11.5208 126.712 11.6094 126.708 11.6974C126.714 11.7908 126.7 11.8846 126.665 11.9717C126.631 12.0588 126.577 12.1367 126.508 12.1997C126.34 12.3248 126.133 12.3855 125.924 12.3705H125.785L125.631 12.3523C125.642 12.0487 125.642 11.8105 125.643 11.6228H125.633ZM116.314 13.7346H116.615C116.717 13.7346 116.816 13.7346 116.916 13.7457V13.611H116.906H116.86C116.814 13.6172 116.767 13.6129 116.722 13.5994C116.678 13.5855 116.637 13.5624 116.602 13.5311C116.544 13.4074 116.521 13.2703 116.536 13.1346V12.5159L116.753 12.5361H116.898C117.194 12.5543 117.488 12.4692 117.727 12.294C117.826 12.2127 117.904 12.1093 117.955 11.9924C118.006 11.8759 118.029 11.7484 118.022 11.6209C118.026 11.5093 118.004 11.3981 117.957 11.2961C117.911 11.1941 117.842 11.1046 117.755 11.0334C117.549 10.8761 117.295 10.7972 117.037 10.8097L116.766 10.8188C116.626 10.8188 116.503 10.8188 116.402 10.8188H116.127C116.036 10.8188 115.945 10.8188 115.851 10.8044V10.9483H115.867C115.95 10.9391 116.032 10.9627 116.098 11.0137C116.148 11.0839 116.171 11.1701 116.162 11.2557V12.5288C116.162 12.5924 116.162 12.6742 116.162 12.7781C116.162 12.8815 116.162 12.9508 116.162 12.9888C116.175 13.1567 116.155 13.3256 116.104 13.4854C116.081 13.5239 116.048 13.5547 116.009 13.5744C115.97 13.5941 115.925 13.6018 115.881 13.5965H115.832H115.801V13.7293L116.116 13.7183L116.314 13.7346ZM116.522 11.6228C116.522 11.441 116.522 11.2485 116.531 11.0647C116.584 11.0647 116.638 11.0483 116.693 11.0426C116.747 11.0373 116.808 11.0426 116.874 11.0426C117.069 11.0344 117.259 11.0993 117.408 11.2244C117.473 11.2846 117.524 11.3577 117.558 11.4395C117.592 11.5208 117.608 11.6094 117.604 11.6974C117.61 11.7908 117.596 11.8846 117.561 11.9712C117.526 12.0583 117.472 12.1362 117.404 12.1997C117.236 12.3253 117.028 12.3859 116.818 12.3705H116.682L116.526 12.3523C116.527 12.0487 116.529 11.8105 116.529 11.6228H116.522ZM121.978 13.3401C122.111 13.496 122.277 13.6201 122.464 13.7038C122.654 13.7866 122.86 13.8284 123.068 13.8255C123.247 13.8241 123.425 13.7904 123.592 13.7255C123.761 13.6634 123.917 13.5696 124.05 13.4493C124.213 13.3049 124.343 13.1264 124.43 12.9272C124.518 12.7242 124.564 12.5048 124.563 12.2835C124.565 12.0665 124.521 11.8514 124.436 11.6522C124.352 11.4544 124.229 11.2764 124.072 11.1301C123.944 11.0084 123.792 10.9141 123.626 10.8535C123.451 10.7924 123.267 10.7621 123.081 10.7645C122.894 10.7635 122.708 10.7996 122.535 10.8698C122.36 10.9386 122.2 11.0406 122.064 11.1701C121.912 11.312 121.791 11.4843 121.71 11.6758C121.629 11.8692 121.587 12.077 121.587 12.2868C121.587 12.4817 121.621 12.6751 121.689 12.858C121.755 13.035 121.853 13.1986 121.978 13.3401ZM122.317 11.3173C122.404 11.209 122.515 11.1229 122.641 11.0657C122.768 11.0084 122.906 10.9819 123.044 10.9882C123.195 10.9868 123.343 11.0204 123.478 11.0873C123.612 11.1537 123.729 11.2514 123.819 11.3722C124.032 11.6527 124.141 11.9986 124.127 12.3503C124.146 12.6766 124.048 12.9989 123.852 13.2602C123.766 13.3699 123.655 13.4575 123.529 13.5162C123.402 13.5744 123.264 13.6023 123.125 13.5965C122.974 13.598 122.825 13.5628 122.691 13.495C122.557 13.4267 122.441 13.3276 122.353 13.2053C122.138 12.9167 122.029 12.563 122.044 12.2031C122.026 11.8846 122.122 11.5704 122.317 11.3173ZM118.804 13.7346H119.052L119.348 13.7457V13.6037H119.277C119.234 13.61 119.19 13.6042 119.15 13.5874C119.11 13.571 119.075 13.5441 119.048 13.5089C118.994 13.3526 118.974 13.1866 118.988 13.0215V12.5688V11.0666C119.13 11.0666 119.261 11.0666 119.385 11.0575H119.748H120.112C120.238 11.0575 120.37 11.0575 120.51 11.0666V12.5688V13.0673C120.524 13.2179 120.505 13.3694 120.452 13.5109C120.426 13.5446 120.392 13.571 120.352 13.5869C120.312 13.6033 120.269 13.609 120.227 13.6037H120.154V13.7457L120.452 13.7346H120.7H120.932L121.233 13.7457V13.6057H121.162C121.12 13.61 121.078 13.6028 121.039 13.585C121.001 13.5667 120.969 13.5388 120.945 13.5037C120.896 13.3627 120.877 13.2126 120.889 13.0634V12.9725C120.889 12.9345 120.889 12.8854 120.889 12.8291C120.889 12.7723 120.889 12.716 120.889 12.6689V11.8721C120.889 11.8249 120.889 11.772 120.889 11.7157C120.889 11.6594 120.889 11.6103 120.889 11.5704V11.4809C120.877 11.3375 120.896 11.1927 120.945 11.0575C120.969 11.0224 121.001 10.9944 121.039 10.9766C121.078 10.9588 121.12 10.9521 121.162 10.9574H121.216V10.8155C120.898 10.8155 120.622 10.826 120.385 10.828H120.052H119.114H118.73L118.284 10.8188V10.9608H118.339C118.381 10.9564 118.424 10.9637 118.463 10.9819C118.501 11.0002 118.534 11.0286 118.557 11.0647C118.609 11.2119 118.63 11.3688 118.617 11.5247V11.6065C118.617 11.643 118.617 11.6883 118.617 11.7412C118.617 11.7941 118.617 11.8413 118.617 11.8851V12.6727C118.617 12.7199 118.617 12.7723 118.617 12.8325C118.617 12.8926 118.617 12.9378 118.617 12.9763V13.0673C118.629 13.2164 118.609 13.3665 118.559 13.5075C118.536 13.5426 118.504 13.571 118.465 13.5893C118.427 13.6071 118.384 13.6138 118.342 13.609H118.273V13.749L118.575 13.7385L118.804 13.7346ZM127.912 13.571C127.892 13.5537 127.877 13.5316 127.867 13.5065C127.858 13.482 127.854 13.4555 127.857 13.4291C127.864 13.3468 127.883 13.2664 127.912 13.189C127.946 13.0764 128.012 12.8979 128.11 12.6525H128.367H128.63H128.947H129.16L129.36 13.2799C129.371 13.3117 129.38 13.3439 129.387 13.3766C129.39 13.4007 129.39 13.4247 129.387 13.4493C129.39 13.4724 129.387 13.4964 129.377 13.5181C129.368 13.5397 129.353 13.559 129.334 13.5729C129.272 13.6018 129.204 13.6134 129.136 13.6076H129.096V13.7476L129.387 13.7365H129.64H129.862L130.155 13.7476V13.6076H130.113C130.053 13.6105 129.993 13.5946 129.943 13.5619C129.879 13.4931 129.831 13.4113 129.802 13.3218C129.711 13.0961 129.585 12.7593 129.425 12.3104C129.267 11.8615 129.098 11.3664 128.921 10.8227H128.568C128.353 11.4001 128.147 11.9284 127.952 12.4086C127.757 12.8887 127.621 13.2092 127.544 13.3689C127.512 13.4416 127.461 13.5046 127.397 13.5508C127.326 13.5903 127.247 13.6105 127.166 13.609V13.7476L127.431 13.7365H127.637H127.87L128.15 13.7476V13.6076H128.094C128.028 13.6143 127.962 13.6018 127.903 13.571H127.912ZM128.666 11.2066L129.087 12.4326H128.998H128.634H128.318H128.205L128.666 11.2066ZM54.6004 13.6076C54.5587 13.6114 54.5166 13.6042 54.4788 13.5864C54.441 13.5686 54.4088 13.5407 54.3857 13.5056C54.3356 13.3651 54.3158 13.2159 54.3276 13.0673V12.9744C54.3276 12.9364 54.3276 12.8887 54.3276 12.8305C54.3276 12.7723 54.3276 12.7199 54.3276 12.6727V11.8759C54.3276 11.8283 54.3276 11.7758 54.3276 11.7195C54.3276 11.6628 54.3276 11.6137 54.3276 11.5738V11.4847C54.3154 11.3409 54.3353 11.1961 54.3857 11.0608C54.4086 11.0257 54.4408 10.9978 54.4787 10.98C54.5167 10.9627 54.5588 10.956 54.6004 10.9608H54.6531V10.8174C54.5549 10.8174 54.4712 10.828 54.3748 10.8299C54.2784 10.8318 54.2093 10.8299 54.1365 10.8299C54.0638 10.8299 53.9638 10.8299 53.8746 10.8299C53.7855 10.8299 53.6927 10.8299 53.6073 10.8174V10.9608H53.6618C53.7044 10.9555 53.7477 10.9612 53.7873 10.9776C53.8269 10.9944 53.8614 11.0214 53.8873 11.0556C53.9292 11.1306 53.9505 11.2153 53.9492 11.3009C53.6818 11.5718 53.4035 11.8466 53.1398 12.1049C52.8761 12.3633 52.5941 12.6342 52.3176 12.8945V11.5247C52.3019 11.3649 52.3218 11.2033 52.3759 11.0517C52.4028 11.0185 52.4379 10.9925 52.4777 10.9766C52.5175 10.9608 52.5607 10.9555 52.6032 10.9608H52.6523V10.8174C52.5614 10.8174 52.4704 10.828 52.3831 10.8299C52.2958 10.8318 52.2012 10.8299 52.1284 10.8299C52.0557 10.8299 51.9739 10.8299 51.8866 10.8299C51.7992 10.8299 51.7046 10.8299 51.6064 10.8174V10.9608H51.661C51.7034 10.9564 51.7463 10.9637 51.7848 10.9819C51.8233 11.0002 51.856 11.0286 51.8793 11.0647C51.9315 11.2119 51.9519 11.3688 51.9393 11.5247V11.6065C51.9393 11.643 51.9393 11.6883 51.9393 11.7412C51.9393 11.7941 51.9393 11.8413 51.9393 11.8851V12.6727C51.9393 12.7199 51.9393 12.7723 51.9393 12.8305C51.9393 12.8887 51.9393 12.9364 51.9393 12.9744V13.0673C51.9511 13.2159 51.9312 13.3651 51.8811 13.5056C51.858 13.5412 51.8256 13.5691 51.7874 13.5874C51.7491 13.6052 51.7066 13.6124 51.6647 13.6076H51.5955V13.7476L51.8974 13.7365H52.1284H52.3759L52.6723 13.7476V13.6057H52.6014C52.5568 13.611 52.5115 13.6037 52.4709 13.5845C52.4303 13.5652 52.3961 13.5344 52.3722 13.4964C52.3295 13.4122 52.3088 13.3184 52.3122 13.2236C52.5796 12.9527 52.8579 12.678 53.1216 12.4196C53.3854 12.1612 53.6673 11.8923 53.9437 11.632V13.0692C53.9574 13.2198 53.937 13.3713 53.8837 13.5128C53.8573 13.5465 53.8227 13.5725 53.7832 13.5888C53.7436 13.6052 53.7006 13.611 53.6582 13.6057H53.5873V13.7476L53.8837 13.7365H54.1329H54.3658L54.6658 13.7476V13.6076H54.5931H54.6004ZM42.5828 13.7293H42.8156L43.0957 13.7404V13.6004H43.0302C42.9671 13.6037 42.9042 13.5898 42.8484 13.56C42.8293 13.5421 42.8146 13.52 42.8054 13.4955C42.7963 13.4709 42.7929 13.4445 42.7956 13.418C42.803 13.3362 42.8208 13.2559 42.8484 13.1779C42.8847 13.0653 42.9502 12.8873 43.0484 12.6414H43.3049H43.5577H43.8724H44.087L44.2853 13.2891C44.2966 13.3203 44.3057 13.3526 44.3126 13.3853C44.3151 13.4098 44.3151 13.4339 44.3126 13.4584C44.3152 13.4815 44.3117 13.5056 44.3025 13.5272C44.2933 13.5489 44.2786 13.5676 44.2598 13.5821C44.1979 13.6105 44.1295 13.6225 44.0616 13.6167H44.0216V13.7567L44.3126 13.7457H44.5654H44.7873L45.0802 13.7567V13.6167H45.0492C44.9894 13.6196 44.9302 13.6037 44.8801 13.571C44.8162 13.5022 44.7678 13.4204 44.7382 13.3309C44.6473 13.1053 44.5218 12.7685 44.3617 12.3195C44.2034 11.8701 44.0343 11.3755 43.856 10.8318H43.5032C43.2885 11.4087 43.0836 11.9375 42.8884 12.4177C42.6931 12.8979 42.5573 13.2183 42.4809 13.3781C42.4487 13.4512 42.3971 13.5142 42.3318 13.56C42.2619 13.5994 42.1828 13.6196 42.1026 13.6182V13.7567L42.3682 13.7457L42.5828 13.7293ZM43.605 11.2066L44.0252 12.4326H43.9215H43.5577H43.2412H43.1285L43.605 11.2066ZM45.8859 13.7293H46.1351L46.4316 13.7404V13.5984H46.3607C46.3175 13.6042 46.2735 13.5989 46.2333 13.5821C46.193 13.5652 46.1579 13.5383 46.1315 13.5037C46.0772 13.3473 46.0567 13.1813 46.0715 13.0162V12.3123L47.0919 13.3911C47.1428 13.4469 47.1975 13.4988 47.2556 13.5474C47.3091 13.5936 47.367 13.634 47.4284 13.6692C47.4883 13.7043 47.5525 13.7308 47.6194 13.749C47.691 13.7693 47.7651 13.7794 47.8395 13.7784H47.9231H47.9904H48.0559L48.1305 13.7673V13.6528H48.105C48.052 13.6499 48.0004 13.635 47.9541 13.609C47.8903 13.5734 47.8295 13.5325 47.7721 13.4873C47.7067 13.4344 47.6394 13.3766 47.5703 13.3054C47.5012 13.2347 47.4302 13.1707 47.3611 13.098L46.4516 12.1593L47.4684 11.1864L47.4884 11.1648C47.6061 11.0411 47.7673 10.9689 47.9377 10.9627H47.9558V10.8227C47.8631 10.8227 47.774 10.8337 47.7031 10.8352C47.6321 10.8371 47.5593 10.8352 47.5012 10.8352C47.4429 10.8352 47.3338 10.8352 47.2483 10.8352C47.1628 10.8352 47.0755 10.8352 46.9882 10.8227V10.9627H47.0392C47.0859 10.9584 47.133 10.9665 47.1756 10.9863C47.1867 10.9935 47.1951 11.0041 47.199 11.0171C47.203 11.0296 47.2025 11.043 47.1974 11.0556C47.1832 11.0969 47.1603 11.1349 47.1301 11.1662C47.0937 11.2119 47.05 11.2591 47.001 11.3139L46.0679 12.3195V11.53C46.0528 11.3702 46.0721 11.209 46.1242 11.0575C46.1517 11.0243 46.1871 10.9983 46.2272 10.9824C46.2672 10.9665 46.3106 10.9613 46.3534 10.9665H46.408V10.8227C46.317 10.8227 46.2261 10.8337 46.1388 10.8352C46.0515 10.8371 45.966 10.8352 45.8823 10.8352C45.7986 10.8352 45.7295 10.8352 45.6422 10.8352C45.5549 10.8352 45.4603 10.8352 45.3621 10.8227V10.9665H45.4167C45.4591 10.9617 45.5019 10.9689 45.5404 10.9872C45.579 11.0055 45.6117 11.0344 45.6349 11.07C45.6871 11.2177 45.7076 11.3741 45.695 11.53V11.6137C45.695 11.6483 45.695 11.694 45.695 11.7465C45.695 11.7994 45.695 11.8466 45.695 11.8904V12.678C45.695 12.7252 45.695 12.7781 45.695 12.8363C45.695 12.8945 45.695 12.9417 45.695 12.9816V13.0725C45.7067 13.2212 45.6869 13.3709 45.6367 13.5109C45.6136 13.5465 45.5811 13.5744 45.5429 13.5922C45.5047 13.6105 45.4623 13.6177 45.4203 13.6129H45.3494V13.7529L45.6531 13.7418L45.8859 13.7293ZM49.08 13.7293H49.7639H50.084H50.2659L50.4478 13.7385L50.5933 13.749C50.6281 13.7519 50.6628 13.7567 50.697 13.764C50.745 13.776 50.7914 13.7933 50.8352 13.8164C50.8855 13.8448 50.929 13.8842 50.9625 13.9314C51.0046 13.9935 51.0371 14.0613 51.0589 14.133C51.0895 14.2355 51.1078 14.3409 51.1135 14.4477H51.2645V14.2206C51.2645 14.2042 51.2645 14.1787 51.2645 14.146C51.2645 14.1133 51.2645 14.0695 51.2645 14.0113C51.2645 13.9531 51.2645 13.8818 51.2736 13.7986C51.2827 13.7149 51.2863 13.6167 51.2954 13.4892L51.0917 13.5075C51.0531 13.5133 51.0139 13.5133 50.9753 13.5075C50.9615 13.5046 50.9487 13.4988 50.9378 13.4897C50.9271 13.481 50.9186 13.4695 50.9134 13.4565C50.896 13.417 50.8867 13.3742 50.8862 13.3309C50.8862 13.2746 50.8862 13.2001 50.8862 13.1053V12.9855C50.8862 12.9397 50.8862 12.8887 50.8862 12.8305C50.8862 12.7723 50.8862 12.7199 50.8862 12.6727V11.8759C50.8862 11.8283 50.8862 11.7758 50.8862 11.7195C50.8862 11.6628 50.8862 11.6137 50.8862 11.5738V11.4847C50.8738 11.3409 50.893 11.1965 50.9426 11.0608C50.9655 11.0262 50.9977 10.9983 51.0357 10.9805C51.0736 10.9627 51.1156 10.956 51.1571 10.9608H51.1972V10.8174C51.099 10.8174 51.0153 10.828 50.9207 10.8299C50.8261 10.8318 50.7552 10.8299 50.6806 10.8299C50.606 10.8299 50.5078 10.8299 50.4205 10.8299C50.3332 10.8299 50.2386 10.8299 50.1513 10.8174V10.9608H50.2077C50.2503 10.956 50.2934 10.9617 50.333 10.9786C50.3725 10.9949 50.4071 11.0214 50.4333 11.0556C50.486 11.2172 50.5058 11.388 50.4914 11.5574V11.9885V13.4911C50.2186 13.4911 49.973 13.5037 49.7548 13.5037H49.3765H48.9872L48.9763 12.0015V11.5377C48.9616 11.3774 48.9814 11.2163 49.0345 11.0647C49.0615 11.031 49.0965 11.0055 49.1363 10.9896C49.1761 10.9738 49.2194 10.968 49.2618 10.9738H49.3164V10.8299C49.2255 10.8299 49.1345 10.841 49.0472 10.8429C48.9599 10.8443 48.8744 10.8429 48.7926 10.8429C48.7107 10.8429 48.638 10.8429 48.5506 10.8429C48.4634 10.8429 48.3688 10.8429 48.2705 10.8299V10.9738H48.3251C48.3675 10.9689 48.4103 10.9762 48.4489 10.9945C48.4874 11.0127 48.5201 11.0416 48.5434 11.0772C48.5954 11.224 48.6159 11.3803 48.6034 11.5357V11.6195C48.6034 11.6556 48.6034 11.6993 48.6034 11.7537C48.6034 11.8086 48.6034 11.8523 48.6034 11.8956V12.6833C48.6034 12.7309 48.6034 12.7834 48.6034 12.8416C48.6034 12.8998 48.6034 12.947 48.6034 12.9874V13.0783C48.6154 13.226 48.5956 13.3752 48.5452 13.5147C48.5226 13.5503 48.4902 13.5792 48.4519 13.5975C48.4136 13.6158 48.3709 13.623 48.3287 13.6182H48.2596V13.7601H48.698L49.08 13.7293ZM110.53 13.6037C110.487 13.61 110.443 13.6042 110.403 13.5874C110.363 13.571 110.327 13.5441 110.301 13.5089C110.247 13.3526 110.226 13.1866 110.241 13.0215V12.3176L111.261 13.3964C111.313 13.4512 111.368 13.5037 111.425 13.5527C111.479 13.5989 111.537 13.6398 111.598 13.6749C111.658 13.7101 111.723 13.737 111.791 13.7548C111.862 13.775 111.936 13.7846 112.011 13.7837H112.093H112.162H112.226L112.302 13.7731V13.6528H112.282C112.229 13.6504 112.177 13.6355 112.131 13.609C112.067 13.5734 112.006 13.5325 111.949 13.4873C111.885 13.4344 111.818 13.3766 111.747 13.3054C111.676 13.2347 111.609 13.1707 111.538 13.098L110.629 12.1593L111.645 11.1864L111.665 11.1648C111.783 11.0411 111.944 10.9689 112.114 10.9627H112.133V10.8227C112.042 10.8227 111.951 10.8337 111.881 10.8352C111.813 10.8371 111.736 10.8352 111.678 10.8352C111.62 10.8352 111.512 10.8352 111.425 10.8352C111.338 10.8352 111.252 10.8352 111.165 10.8227V10.9627H111.216C111.263 10.9584 111.31 10.9665 111.352 10.9863C111.364 10.993 111.373 11.0036 111.377 11.0166C111.382 11.0291 111.381 11.043 111.376 11.0556C111.36 11.096 111.338 11.134 111.309 11.1662C111.272 11.2119 111.229 11.2591 111.178 11.3139L110.245 12.3195V11.53C110.23 11.3702 110.25 11.209 110.303 11.0575C110.33 11.0243 110.365 10.9983 110.405 10.9824C110.445 10.9665 110.488 10.9608 110.53 10.9665H110.585V10.8227C110.494 10.8227 110.403 10.8337 110.317 10.8352C110.232 10.8371 110.145 10.8352 110.061 10.8352C109.977 10.8352 109.906 10.8352 109.819 10.8352C109.732 10.8352 109.637 10.8352 109.541 10.8227V10.9665H109.584C109.627 10.9617 109.67 10.9689 109.708 10.9872C109.747 11.0055 109.779 11.0339 109.802 11.07C109.855 11.2177 109.875 11.3741 109.863 11.53V11.6137C109.863 11.6483 109.863 11.694 109.863 11.7465C109.863 11.7994 109.863 11.8466 109.863 11.8904V12.678C109.863 12.7252 109.863 12.7781 109.863 12.8363C109.863 12.8945 109.863 12.9417 109.863 12.9816V13.0725C109.875 13.2212 109.855 13.3704 109.806 13.5109C109.783 13.5465 109.75 13.5744 109.712 13.5922C109.673 13.6105 109.63 13.6172 109.588 13.6129H109.519V13.7529L109.821 13.7418H110.052H110.299L110.597 13.7529V13.611H110.525L110.53 13.6037ZM55.4171 13.3309C55.5511 13.4863 55.7175 13.6105 55.9045 13.6947C56.0949 13.7774 56.3008 13.8193 56.5084 13.8164C56.6876 13.815 56.8651 13.7813 57.0322 13.7163C57.2008 13.6533 57.3563 13.56 57.4906 13.4401C57.6516 13.2972 57.78 13.1221 57.8671 12.9253C57.9562 12.7223 58.0014 12.5029 57.9999 12.2815C58.001 12.0645 57.9584 11.8499 57.8744 11.6503C57.7911 11.4525 57.6672 11.275 57.5107 11.1282C57.3834 11.0065 57.2323 10.9122 57.0668 10.8515C56.888 10.7895 56.6996 10.7592 56.5102 10.7625C56.3232 10.7621 56.1378 10.7977 55.9646 10.8679C55.7809 10.9415 55.6135 11.0503 55.4721 11.1888C55.3307 11.3269 55.2181 11.492 55.1406 11.6738C55.059 11.8673 55.0175 12.0751 55.0187 12.2849C55.0135 12.6746 55.1543 13.0523 55.4134 13.3434L55.4171 13.3309ZM55.7444 11.3173C55.8316 11.2095 55.9428 11.1234 56.0691 11.0661C56.1955 11.0094 56.3335 10.9824 56.472 10.9882C56.6223 10.9868 56.7708 11.0204 56.9055 11.0873C57.0401 11.1537 57.1572 11.2514 57.2469 11.3722C57.4606 11.6522 57.5693 11.9986 57.5543 12.3503C57.5728 12.6761 57.4762 12.9984 57.2814 13.2602C57.1954 13.3694 57.0846 13.457 56.9581 13.5157C56.8317 13.5744 56.6931 13.6018 56.5539 13.5965C56.4032 13.598 56.2544 13.5628 56.1198 13.495C55.9854 13.4267 55.8691 13.3276 55.7809 13.2053C55.5652 12.9152 55.4566 12.5592 55.4735 12.1978C55.4567 11.8817 55.5527 11.5694 55.7444 11.3173ZM99.0184 13.4435C99.181 13.3006 99.3104 13.1235 99.3985 12.9253C99.4875 12.7223 99.5327 12.5029 99.5313 12.2815C99.5298 12.065 99.4846 11.8509 99.3985 11.6522C99.3153 11.4544 99.1911 11.2764 99.0347 11.1301C98.9072 11.0084 98.7562 10.9141 98.5906 10.8535C98.4121 10.7914 98.2235 10.7611 98.0344 10.7645C97.8473 10.764 97.662 10.7996 97.4888 10.8698C97.1207 11.018 96.8263 11.3058 96.6699 11.6705C96.5886 11.8634 96.5472 12.0718 96.5481 12.2815C96.5453 12.6708 96.6858 13.0475 96.9427 13.3401C97.0769 13.4955 97.2434 13.6196 97.4306 13.7038C97.6206 13.7866 97.8266 13.8284 98.0344 13.8255C98.2134 13.8241 98.391 13.7904 98.5579 13.7255C98.7278 13.6615 98.8841 13.5657 99.0184 13.4435ZM97.3103 13.1962C97.0957 12.9075 96.9874 12.5534 97.0028 12.194C96.987 11.8793 97.0832 11.5685 97.2742 11.3173C97.3613 11.2095 97.4724 11.1234 97.5985 11.0661C97.725 11.0094 97.8631 10.9824 98.0017 10.9882C98.1518 10.9863 98.3005 11.02 98.4352 11.0864C98.5699 11.1532 98.6869 11.2509 98.7764 11.3722C98.99 11.6522 99.0987 11.9986 99.0838 12.3503C99.1021 12.6761 99.0059 12.9984 98.811 13.2602C98.7249 13.3699 98.6142 13.4575 98.4877 13.5162C98.3611 13.5744 98.2226 13.6023 98.0835 13.5965C97.9319 13.5965 97.7828 13.5604 97.6481 13.4907C97.5133 13.4209 97.3979 13.3199 97.3103 13.1962ZM84.9163 13.609H84.8471C84.804 13.6148 84.7601 13.6095 84.7198 13.5927C84.6796 13.5763 84.6444 13.5494 84.6179 13.5147C84.5635 13.3583 84.543 13.1919 84.5579 13.0273V12.3797H84.9908H85.3437C85.5056 12.3797 85.7621 12.3797 86.1131 12.3797H86.1404V13.0783C86.1536 13.2284 86.1338 13.38 86.0822 13.5219C86.0555 13.5556 86.0205 13.5821 85.9807 13.5984C85.9409 13.6143 85.8975 13.6201 85.8548 13.6148H85.7839V13.7567L86.0803 13.7457H86.3295H86.5624L86.8625 13.7567V13.6167H86.7897C86.748 13.6211 86.7058 13.6143 86.6679 13.596C86.63 13.5782 86.5979 13.5498 86.5751 13.5147C86.5251 13.3742 86.5053 13.2251 86.5169 13.0764C86.5169 13.0326 86.5169 12.9542 86.5169 12.8382C86.5169 12.7218 86.5169 12.6289 86.5169 12.5563V12.0102C86.5169 11.9361 86.5169 11.8432 86.5169 11.7287C86.5169 11.6137 86.5169 11.5357 86.5169 11.4939C86.5052 11.35 86.525 11.2052 86.5751 11.07C86.5979 11.0349 86.6302 11.007 86.6681 10.9892C86.706 10.9714 86.7482 10.9651 86.7897 10.9699H86.8479V10.826C86.7497 10.826 86.6661 10.8371 86.5715 10.839C86.4769 10.841 86.4023 10.839 86.3314 10.839C86.2604 10.839 86.1604 10.839 86.0713 10.839C85.9821 10.839 85.8894 10.839 85.8021 10.826V10.9699H85.8566C85.8995 10.9646 85.9429 10.9709 85.9828 10.9872C86.0227 11.0036 86.0575 11.0305 86.084 11.0647C86.1372 11.2264 86.157 11.3972 86.1422 11.5665V12.1357H85.7311H84.8471H84.5652V11.5338C84.5507 11.3731 84.5705 11.2115 84.6234 11.0589C84.6507 11.0262 84.6858 11.0007 84.7256 10.9853C84.7654 10.9699 84.8084 10.9646 84.8508 10.9699H84.9053V10.826C84.8144 10.826 84.7235 10.8371 84.6361 10.839C84.5488 10.841 84.4633 10.839 84.3815 10.839C84.2997 10.839 84.2269 10.839 84.1396 10.839C84.0522 10.839 83.9577 10.839 83.8594 10.826V10.9699H83.914C83.9567 10.9651 83.9999 10.9723 84.0388 10.9906C84.0777 11.0089 84.1107 11.0378 84.1341 11.0738C84.1845 11.2216 84.2043 11.3779 84.1923 11.5338C84.1923 11.5718 84.1923 11.643 84.1923 11.7484C84.1923 11.8538 84.1923 11.9414 84.1923 12.0102V12.5563C84.1923 12.6289 84.1923 12.7232 84.1923 12.8382C84.1923 12.9527 84.1923 13.0326 84.1923 13.0764C84.204 13.2251 84.1841 13.3742 84.1341 13.5147C84.111 13.5498 84.0786 13.5782 84.0404 13.5965C84.0021 13.6143 83.9596 13.6215 83.9177 13.6167H83.8485V13.7567L84.1487 13.7457H84.3815H84.6289L84.9253 13.7567L84.9163 13.609ZM71.9146 12.6563L72.1147 13.2891C72.1256 13.3256 72.1347 13.3584 72.1402 13.3853C72.1426 13.4098 72.1426 13.4339 72.1402 13.4584C72.143 13.482 72.1394 13.5056 72.1298 13.5277C72.1202 13.5494 72.105 13.5681 72.0856 13.5821C72.0237 13.611 71.9553 13.6225 71.8873 13.6167H71.8491V13.7567L72.1402 13.7457H72.3912H72.6149L72.9059 13.7567V13.6167H72.8659C72.8056 13.6196 72.7457 13.6037 72.6949 13.571C72.6311 13.5022 72.5827 13.4204 72.5531 13.3309C72.4621 13.1053 72.3372 12.7685 72.1784 12.3195C72.0183 11.8701 71.8492 11.3755 71.6727 10.8318H71.3199C71.104 11.4087 70.8985 11.9375 70.7032 12.4177C70.508 12.8979 70.3728 13.2183 70.2976 13.3781C70.2642 13.4507 70.2129 13.5133 70.1485 13.56C70.078 13.5994 69.9982 13.6196 69.9174 13.6182V13.7567L70.1848 13.7457H70.3885H70.6214L70.9015 13.7567V13.6167H70.8469C70.7807 13.622 70.7143 13.6081 70.6559 13.5763C70.6362 13.559 70.6209 13.5369 70.6114 13.5123C70.6019 13.4873 70.5985 13.4608 70.6014 13.4344C70.6088 13.3526 70.6271 13.2717 70.6559 13.1948C70.6905 13.0817 70.7578 12.9037 70.8542 12.6578H71.1125H71.3871H71.7036L71.9146 12.6563ZM71.3871 12.447H71.0725H70.9597L71.429 11.2211L71.8491 12.447H71.7509H71.3871ZM80.9965 13.7346H81.2457L81.5422 13.7457V13.6037H81.4712C81.4263 13.6095 81.3807 13.6023 81.3399 13.5826C81.299 13.5633 81.2644 13.533 81.2402 13.4945C81.199 13.4098 81.179 13.316 81.182 13.2217C81.4488 12.9503 81.7186 12.6823 81.9914 12.4177C82.2625 12.154 82.5371 11.8904 82.8136 11.6301V13.0673C82.8273 13.2179 82.8068 13.3694 82.7536 13.5109C82.7272 13.5446 82.6926 13.571 82.653 13.5869C82.6135 13.6033 82.5704 13.609 82.528 13.6037H82.4553V13.7457L82.7536 13.7346H83.0009H83.2338L83.5339 13.7457V13.6057H83.4629C83.421 13.61 83.3786 13.6028 83.3405 13.585C83.3023 13.5667 83.2698 13.5388 83.2465 13.5037C83.1972 13.3632 83.178 13.214 83.1901 13.0653V12.9725C83.1901 12.9345 83.1901 12.8873 83.1901 12.8291C83.1901 12.7709 83.1901 12.7179 83.1901 12.6708V11.874C83.1901 11.8268 83.1901 11.7739 83.1901 11.7176C83.1901 11.6613 83.1901 11.6122 83.1901 11.5718V11.4828C83.1777 11.3394 83.197 11.1946 83.2465 11.0589C83.2699 11.0243 83.3025 10.9964 83.3407 10.9786C83.3789 10.9613 83.4212 10.9545 83.4629 10.9588H83.5175V10.8155C83.4193 10.8155 83.3265 10.826 83.241 10.828C83.1555 10.8299 83.0755 10.828 83.0009 10.828C82.9264 10.828 82.8281 10.828 82.7408 10.828C82.6535 10.828 82.5589 10.828 82.4716 10.8155V10.9588H82.528C82.5706 10.9536 82.6139 10.9593 82.6535 10.9762C82.6931 10.9925 82.7276 11.0195 82.7536 11.0536C82.7945 11.1292 82.8158 11.2134 82.8154 11.299C82.5462 11.5709 82.2764 11.8389 82.006 12.103C81.7355 12.3677 81.4615 12.6308 81.1838 12.8926V11.5228C81.1688 11.363 81.1881 11.2018 81.2402 11.0498C81.2674 11.0171 81.3025 10.9911 81.3423 10.9752C81.382 10.9593 81.4251 10.954 81.4676 10.9588H81.524V10.8155C81.4312 10.8155 81.3421 10.826 81.2548 10.828C81.1675 10.8299 81.0729 10.828 80.9983 10.828C80.9238 10.828 80.8437 10.828 80.7564 10.828C80.6691 10.828 80.5745 10.828 80.4781 10.8155V10.9588H80.5308C80.5735 10.954 80.6168 10.9613 80.6557 10.9795C80.6945 10.9978 80.7275 11.0267 80.7509 11.0628C80.8031 11.21 80.8236 11.3669 80.811 11.5228V11.6045C80.811 11.6411 80.811 11.6868 80.811 11.7393C80.811 11.7922 80.811 11.8394 80.811 11.8831V12.6708C80.811 12.7179 80.811 12.7709 80.811 12.8291C80.811 12.8873 80.811 12.9345 80.811 12.9725V13.0653C80.8228 13.214 80.8029 13.3632 80.7528 13.5037C80.7291 13.5388 80.6963 13.5672 80.6578 13.585C80.6193 13.6033 80.5767 13.61 80.5345 13.6057H80.4654V13.7457L80.7673 13.7346H80.9965ZM95.0893 13.8203C95.2447 13.8198 95.3996 13.8025 95.5517 13.7693C95.7066 13.7336 95.8577 13.6826 96.0025 13.6167C96.029 13.5243 96.0603 13.4315 96.0954 13.3381C96.1315 13.2472 96.1719 13.1563 96.2152 13.0673L96.0771 12.9999C96.0011 13.177 95.8745 13.3276 95.7133 13.4329C95.492 13.5604 95.2336 13.6071 94.9815 13.5652C94.7299 13.5229 94.5004 13.3944 94.3329 13.202C94.1101 12.921 93.9961 12.5688 94.0125 12.2103C93.9918 11.8908 94.0909 11.5752 94.2911 11.3245C94.3911 11.2177 94.5138 11.1345 94.65 11.0806C94.7862 11.0262 94.9324 11.0031 95.0787 11.0118C95.2976 11.0017 95.5146 11.0589 95.7008 11.1754C95.7773 11.2278 95.8423 11.2961 95.8904 11.376C95.9385 11.4559 95.9684 11.5449 95.9789 11.6377L96.1281 11.6122C96.1151 11.4992 96.1045 11.39 96.0973 11.2865C96.0901 11.1826 96.0882 11.0844 96.0882 10.9882V10.9247C95.9294 10.8751 95.7677 10.8362 95.6041 10.8082C95.4588 10.7823 95.3116 10.7688 95.1639 10.7683C94.9536 10.7596 94.7433 10.7928 94.5456 10.866C94.3483 10.9391 94.1669 11.0503 94.0125 11.1936C93.8652 11.3361 93.7498 11.5074 93.6733 11.6974C93.5968 11.8875 93.5612 12.0915 93.5689 12.296C93.5568 12.4995 93.5876 12.703 93.6598 12.8936C93.732 13.0841 93.8436 13.2573 93.9875 13.4017C94.1313 13.5465 94.3036 13.6586 94.4941 13.7317C94.6842 13.8049 94.8877 13.8366 95.0912 13.8255L95.0893 13.8203ZM87.4372 13.7346H87.6701L87.9502 13.7457V13.6057H87.8938C87.8306 13.6095 87.7676 13.596 87.7119 13.5657C87.6922 13.5479 87.6769 13.5258 87.6674 13.5013C87.6579 13.4767 87.6544 13.4498 87.6574 13.4238C87.6647 13.3415 87.6831 13.2607 87.7119 13.1837C87.7465 13.0706 87.8138 12.8926 87.9102 12.6472H88.1667H88.4304H88.7469H88.9597L89.1596 13.2746C89.1711 13.3059 89.1803 13.3381 89.187 13.3709C89.1894 13.3949 89.1894 13.4195 89.187 13.4435C89.1899 13.4671 89.1865 13.4911 89.1769 13.5128C89.1673 13.5349 89.1519 13.5537 89.1326 13.5672C89.0706 13.596 89.0022 13.6081 88.9343 13.6018H88.8961V13.7418L89.187 13.7312H89.4382H89.66L89.953 13.7418V13.6018H89.9111C89.851 13.6052 89.7918 13.5893 89.7418 13.5566C89.6778 13.4873 89.6297 13.4055 89.5998 13.3165C89.5089 13.0908 89.3833 12.7535 89.2236 12.3051C89.0652 11.8557 88.8961 11.3611 88.7196 10.8174H88.3667C88.1497 11.3943 87.9441 11.9231 87.7501 12.4033C87.5561 12.8835 87.4203 13.2034 87.3427 13.3636C87.3105 13.4363 87.2597 13.4988 87.1954 13.5455C87.1248 13.585 87.0452 13.6052 86.9644 13.6037V13.7418L87.2299 13.7312L87.4372 13.7346ZM88.4595 11.2119L88.8815 12.4379H88.7905H88.4267H88.1103H87.9975L88.4595 11.2119ZM90.7421 13.7346H90.9913L91.2877 13.7457V13.6037H91.2131C91.1703 13.6095 91.1265 13.6037 91.0861 13.5869C91.0462 13.5705 91.0106 13.5436 90.9841 13.5089C90.9297 13.3526 90.909 13.1866 90.924 13.0215V12.3797H91.357H91.7097C91.8718 12.3797 92.1283 12.3797 92.481 12.3797H92.5065V13.0783C92.5199 13.2284 92.5002 13.38 92.4482 13.5219C92.4223 13.5556 92.3876 13.5821 92.3482 13.5984C92.3082 13.6143 92.2654 13.6201 92.2231 13.6148H92.1499V13.7567L92.4463 13.7457H92.6956H92.9284L93.2287 13.7567V13.6167H93.156C93.1142 13.6211 93.0723 13.6138 93.0343 13.596C92.9963 13.5778 92.964 13.5498 92.9414 13.5147C92.8924 13.3742 92.8731 13.2246 92.8851 13.0764C92.8851 13.0326 92.8851 12.9542 92.8851 12.8382C92.8851 12.7218 92.8851 12.6289 92.8851 12.5563V12.0102C92.8851 11.9361 92.8851 11.8432 92.8851 11.7287C92.8851 11.6137 92.8851 11.5357 92.8851 11.4939C92.8731 11.35 92.8924 11.2057 92.9414 11.07C92.9645 11.0349 92.9968 11.0074 93.0343 10.9896C93.0723 10.9718 93.1142 10.9651 93.156 10.9699H93.2142V10.826C93.1175 10.826 93.0324 10.8371 92.9376 10.839C92.8433 10.841 92.7701 10.839 92.6975 10.839C92.6248 10.839 92.5267 10.839 92.4377 10.839C92.3482 10.839 92.2558 10.839 92.1682 10.826V10.9699H92.2245C92.2673 10.9646 92.3102 10.9709 92.3501 10.9872C92.3895 11.0041 92.4242 11.0305 92.4502 11.0647C92.5036 11.2264 92.5233 11.3972 92.5084 11.5665V12.1357H92.0975H91.2078H90.9259V11.5338C90.9115 11.3731 90.9312 11.2115 90.9841 11.0589C91.0115 11.0262 91.0467 11.0007 91.0866 10.9853C91.126 10.9699 91.1693 10.9646 91.2117 10.9699H91.2661V10.826C91.1751 10.826 91.0842 10.8371 90.9985 10.839C90.9134 10.841 90.8167 10.839 90.7421 10.839C90.6675 10.839 90.5896 10.839 90.5005 10.839C90.4111 10.839 90.3182 10.839 90.222 10.826V10.9699H90.2749C90.3177 10.9651 90.361 10.9718 90.3995 10.9901C90.4385 11.0084 90.4717 11.0373 90.4948 11.0738C90.5453 11.2216 90.565 11.3779 90.553 11.5338C90.553 11.5718 90.553 11.643 90.553 11.7484C90.553 11.8538 90.553 11.9414 90.553 12.0102V12.5563C90.553 12.6289 90.553 12.7232 90.553 12.8382C90.553 12.9527 90.553 13.0326 90.553 13.0764C90.565 13.2246 90.5458 13.3742 90.4967 13.5147C90.4731 13.5503 90.4404 13.5787 90.4019 13.5965C90.3634 13.6143 90.3206 13.6215 90.2783 13.6167H90.2095V13.7567L90.5092 13.7457L90.7421 13.7346ZM58.8785 13.7346H59.1277L59.4242 13.7457V13.6037H59.3532C59.3098 13.6095 59.2656 13.6037 59.2251 13.5874C59.1846 13.5705 59.1491 13.5436 59.1222 13.5089C59.0696 13.3526 59.0498 13.1866 59.064 13.0215V12.3797H59.4969H59.8479C60.0116 12.3797 60.2681 12.3797 60.6192 12.3797H60.6465V13.0783C60.6597 13.2284 60.6398 13.38 60.5883 13.5219C60.5616 13.5556 60.5266 13.5821 60.4868 13.5984C60.4469 13.6143 60.4036 13.6201 60.3609 13.6148H60.2918V13.7567L60.5883 13.7457H60.8356H61.0684L61.3685 13.7567V13.6167H61.2976C61.2559 13.6211 61.2137 13.6143 61.1758 13.596C61.1379 13.5782 61.1057 13.5498 61.083 13.5147C61.033 13.3742 61.0132 13.2251 61.0248 13.0764C61.0248 13.0326 61.0248 12.9542 61.0248 12.8382C61.0248 12.7218 61.0248 12.6289 61.0248 12.5563V12.0102C61.0248 11.9361 61.0248 11.8432 61.0248 11.7287C61.0248 11.6137 61.0248 11.5357 61.0248 11.4939C61.0131 11.35 61.0329 11.2052 61.083 11.07C61.1058 11.0349 61.1381 11.007 61.176 10.9892C61.2139 10.9714 61.2561 10.9651 61.2976 10.9699H61.3522V10.826C61.2558 10.826 61.1703 10.8371 61.0757 10.839C60.9811 10.841 60.9084 10.839 60.8356 10.839C60.7629 10.839 60.6647 10.839 60.5773 10.839C60.49 10.839 60.3955 10.839 60.3081 10.826V10.9699H60.3627C60.4056 10.9646 60.449 10.9709 60.4889 10.9872C60.5287 11.0036 60.5636 11.0305 60.5901 11.0647C60.6433 11.2264 60.6631 11.3972 60.6483 11.5665V12.1357H60.2372H59.3477H59.0658V11.5338C59.0513 11.3731 59.0712 11.2115 59.124 11.0589C59.1509 11.0262 59.1857 11.0007 59.2252 10.9853C59.2647 10.9694 59.3075 10.9646 59.3496 10.9699H59.406V10.826C59.315 10.826 59.224 10.8371 59.1368 10.839C59.0494 10.841 58.9548 10.839 58.8803 10.839C58.8057 10.839 58.7275 10.839 58.6384 10.839C58.5492 10.839 58.4565 10.839 58.3601 10.826V10.9699H58.4128C58.4558 10.9651 58.4993 10.9718 58.5385 10.9901C58.5777 11.0084 58.611 11.0373 58.6347 11.0738C58.6851 11.2216 58.7049 11.3779 58.6929 11.5338C58.6929 11.5718 58.6929 11.643 58.6929 11.7484C58.6929 11.8538 58.6929 11.9414 58.6929 12.0102V12.5563C58.6929 12.6289 58.6929 12.7232 58.6929 12.8382C58.6929 12.9527 58.6929 13.0326 58.6929 13.0764C58.7045 13.2251 58.6847 13.3742 58.6347 13.5147C58.6117 13.5498 58.5792 13.5782 58.541 13.5965C58.5027 13.6143 58.4603 13.6215 58.4183 13.6167H58.3473V13.7567L58.6493 13.7457L58.8785 13.7346ZM77.4951 12.9874C77.6093 13.0812 77.741 13.1515 77.8825 13.1948C78.051 13.2462 78.2265 13.2713 78.4027 13.2689H78.4755C78.4729 13.3237 78.4643 13.3781 78.45 13.431C78.4393 13.4705 78.4193 13.5065 78.3918 13.5364C78.3634 13.5638 78.3283 13.5835 78.2899 13.5927C78.2393 13.6047 78.1873 13.6105 78.1353 13.609H78.0935V13.751L78.4081 13.7404H78.6773H78.9248L79.2521 13.751V13.609H79.2085C79.1549 13.6105 79.1014 13.6033 79.0502 13.5874C79.0106 13.5768 78.9747 13.5556 78.9466 13.5258C78.9197 13.496 78.9003 13.4604 78.8902 13.4219C78.8786 13.3718 78.8731 13.3203 78.8738 13.2689C78.9824 13.2693 79.0908 13.2597 79.1976 13.24C79.3021 13.2222 79.4045 13.1933 79.5032 13.1543C79.5989 13.1163 79.6893 13.0663 79.7724 13.0052C79.9443 12.8835 80.0719 12.7093 80.1362 12.5086C80.1717 12.3908 80.1889 12.2681 80.1871 12.1449C80.1882 12.0025 80.1597 11.861 80.1034 11.7301C80.0475 11.6055 79.9642 11.4948 79.8597 11.4063C79.7454 11.3125 79.6137 11.2422 79.4722 11.1989C79.3037 11.1475 79.1282 11.1224 78.952 11.1244H78.8775C78.8798 11.0748 78.8871 11.0257 78.8993 10.9771C78.9062 10.941 78.9232 10.9078 78.9484 10.8809C78.9748 10.8549 79.0084 10.8381 79.0448 10.8318C79.096 10.8193 79.1486 10.814 79.2012 10.8155H79.2358V10.6754C79.1285 10.6754 79.0284 10.686 78.9356 10.688C78.8429 10.6899 78.7538 10.688 78.681 10.688C78.6083 10.688 78.4991 10.688 78.4027 10.688C78.3063 10.688 78.2208 10.688 78.119 10.6754V10.8155H78.1553C78.2116 10.8145 78.2679 10.8208 78.3227 10.8337C78.3603 10.8434 78.3947 10.8631 78.4227 10.89C78.446 10.9175 78.4617 10.9507 78.4682 10.9863C78.476 11.032 78.4797 11.0782 78.4791 11.1244C78.3706 11.1244 78.2623 11.1335 78.1553 11.1518C78.0507 11.1701 77.9483 11.1994 77.8498 11.2394C77.7541 11.2764 77.6637 11.326 77.5806 11.3866C77.4091 11.5093 77.2816 11.6839 77.2168 11.8851C77.1812 11.9996 77.164 12.1194 77.1659 12.2397C77.1636 12.3831 77.1922 12.525 77.2495 12.6563C77.3038 12.7829 77.3858 12.896 77.4896 12.9874H77.4951ZM78.852 11.9866C78.852 11.694 78.852 11.4703 78.8611 11.3173H78.9375C78.9837 11.3183 79.0299 11.3216 79.0757 11.3284C79.1377 11.3365 79.1987 11.351 79.2576 11.3722C79.3216 11.3957 79.3827 11.427 79.4395 11.4645C79.5028 11.5088 79.5587 11.5632 79.605 11.6248C79.6575 11.6974 79.6985 11.7778 79.7269 11.8629C79.7613 11.9712 79.7791 12.0843 79.7796 12.1978C79.7842 12.3321 79.7625 12.4663 79.716 12.5924C79.6745 12.6977 79.6091 12.7916 79.525 12.8671C79.4401 12.9412 79.3402 12.9956 79.2321 13.0273C79.1141 13.0624 78.9915 13.0802 78.8684 13.0798C78.8447 12.6453 78.8447 12.2815 78.8447 11.9866H78.852ZM77.637 11.8047C77.6758 11.7008 77.738 11.6065 77.8188 11.53C77.904 11.4564 78.0038 11.401 78.1117 11.3683C78.2298 11.3337 78.3524 11.3163 78.4755 11.3173C78.4827 11.7513 78.4858 12.1151 78.4846 12.4086C78.4846 12.7035 78.4846 12.9272 78.4755 13.0798H78.3991C78.3528 13.0793 78.3066 13.0754 78.2608 13.0692C78.1987 13.0605 78.1377 13.0451 78.0789 13.0235C78.0149 12.9999 77.9539 12.9686 77.8971 12.9306C77.8333 12.8878 77.7774 12.8344 77.7315 12.7723C77.6787 12.6992 77.6376 12.6183 77.6097 12.5322C77.5799 12.4235 77.567 12.3104 77.5715 12.1978C77.565 12.0641 77.5854 11.9303 77.6315 11.8047H77.637ZM64.8736 13.7346H65.1719C65.2738 13.7346 65.3738 13.7346 65.4739 13.7457V13.611H65.412C65.3658 13.6172 65.3187 13.6129 65.2741 13.5994C65.2295 13.5855 65.1884 13.5624 65.1537 13.5311C65.096 13.4074 65.0734 13.2703 65.0882 13.1346V12.5159L65.3047 12.5361H65.4502C65.747 12.5548 66.0411 12.4692 66.2814 12.294C66.3791 12.2122 66.4563 12.1088 66.5071 11.9924C66.5579 11.8754 66.5809 11.7484 66.5743 11.6209C66.5779 11.5093 66.5557 11.3981 66.5093 11.2961C66.463 11.1941 66.3937 11.1046 66.3069 11.0334C66.1015 10.8761 65.8469 10.7972 65.5884 10.8097L65.3174 10.8188C65.1774 10.8188 65.0573 10.8188 64.9536 10.8188H64.6808C64.588 10.8188 64.4989 10.8188 64.4025 10.8044V10.9483H64.4189C64.5015 10.9391 64.5844 10.9627 64.6499 11.0137C64.7009 11.0835 64.7237 11.1696 64.7136 11.2557V12.5288C64.7136 12.5924 64.7136 12.6742 64.7136 12.7781C64.7136 12.8815 64.7136 12.9508 64.7136 12.9888C64.7268 13.1567 64.7071 13.3256 64.6553 13.4854C64.6332 13.5239 64.6004 13.5547 64.561 13.5744C64.5216 13.5941 64.4772 13.6018 64.4334 13.5965H64.3861H64.3534V13.7293L64.6681 13.7183L64.8736 13.7346ZM65.0791 11.6228C65.0791 11.441 65.0791 11.2485 65.0882 11.0647C65.1404 11.056 65.1949 11.0488 65.252 11.0426C65.3065 11.0426 65.3647 11.0426 65.4338 11.0426C65.628 11.0344 65.8182 11.0993 65.9668 11.2244C66.032 11.2846 66.0833 11.3577 66.1173 11.4395C66.1512 11.5208 66.1669 11.6094 66.1632 11.6974C66.1695 11.7908 66.1548 11.8846 66.1202 11.9712C66.0856 12.0583 66.0319 12.1362 65.9632 12.1997C65.7948 12.3253 65.5869 12.3859 65.3774 12.3705H65.241L65.0846 12.3523C65.0719 12.0487 65.0737 11.8105 65.0737 11.6228H65.0791ZM62.7455 13.7274H63.2457L63.8441 13.7457C63.8677 13.6384 63.895 13.5292 63.926 13.4199C63.9569 13.3107 63.9933 13.2 64.0351 13.087L63.8877 13.0379C63.847 13.1914 63.7553 13.3261 63.6276 13.4199C63.4126 13.5041 63.1811 13.5378 62.951 13.5181C62.8455 13.5181 62.7509 13.5181 62.6637 13.5181C62.5763 13.5181 62.4999 13.5075 62.4308 13.5003C62.4308 13.3689 62.4308 13.2544 62.4308 13.1563C62.4308 13.0581 62.4308 12.9744 62.4308 12.8743C62.4308 12.8233 62.4308 12.7381 62.4308 12.6198C62.4308 12.5014 62.4308 12.4086 62.4308 12.3417H62.9437C63.1046 12.3272 63.2666 12.3484 63.4185 12.4033C63.4548 12.4302 63.4832 12.4663 63.5008 12.5077C63.5183 12.5495 63.5245 12.5948 63.5185 12.6395V12.6563H63.6531C63.6531 12.6342 63.6531 12.6034 63.6531 12.5596C63.6531 12.4432 63.6531 12.3667 63.6531 12.3306C63.6531 12.294 63.6531 12.2031 63.6531 12.1304C63.6531 12.0578 63.664 11.9794 63.6731 11.8942L63.544 11.8812C63.546 11.9211 63.5377 11.9616 63.5199 11.9972C63.5021 12.0333 63.4753 12.064 63.4421 12.0867C63.3168 12.1338 63.1826 12.1521 63.0492 12.1415H62.8055H62.5036H62.4399C62.4399 12.0713 62.4435 11.9163 62.4508 11.6777C62.4508 11.441 62.4508 11.2394 62.4617 11.0753H62.5527H62.9728C63.1715 11.058 63.3715 11.0873 63.5567 11.1609C63.6071 11.2004 63.6473 11.2514 63.6738 11.3096C63.7004 11.3678 63.7127 11.4318 63.7095 11.4958L63.8459 11.4828C63.8368 11.3736 63.8278 11.2663 63.8223 11.159C63.8168 11.0517 63.8113 10.9483 63.8096 10.8443C63.6495 10.8535 63.4912 10.8592 63.3366 10.8626C63.182 10.8665 63.0274 10.8626 62.8764 10.8626C62.7255 10.8626 62.5782 10.8626 62.389 10.8626C62.1998 10.8626 61.987 10.8535 61.7469 10.8443V10.9829C61.8309 10.9733 61.9153 10.9973 61.9815 11.0498C62.0327 11.1205 62.056 11.2071 62.047 11.2937C62.047 11.4265 62.047 11.5502 62.047 11.6575C62.047 11.7648 62.047 11.8884 62.047 12.0087V12.5669C62.047 12.6395 62.047 12.7487 62.047 12.869C62.047 13.38 61.9506 13.6345 61.7705 13.6345H61.7305H61.7014V13.7673H61.776C62.2089 13.7346 62.5363 13.7274 62.74 13.7274H62.7455ZM67.3455 13.7274H67.5947L67.8894 13.7385V13.5965H67.8184C67.7753 13.6023 67.7314 13.5965 67.6913 13.5797C67.651 13.5633 67.6159 13.5364 67.5893 13.5017C67.5348 13.3454 67.5143 13.1794 67.5292 13.0143V12.3797H67.9621H68.315C68.4769 12.3797 68.7333 12.3797 69.0844 12.3797H69.1117V13.0783C69.1249 13.2284 69.1051 13.38 69.0535 13.5219C69.0272 13.5556 68.9926 13.5821 68.953 13.5984C68.9135 13.6143 68.8704 13.6201 68.8279 13.6148H68.7552V13.7567L69.0517 13.7457H69.3009H69.5337L69.8338 13.7567V13.6167H69.7501C69.7084 13.6211 69.6663 13.6138 69.6285 13.596C69.5906 13.5778 69.5584 13.5498 69.5355 13.5147C69.4855 13.3742 69.4656 13.2251 69.4773 13.0764C69.4773 13.0326 69.4773 12.9542 69.4773 12.8382C69.4773 12.7218 69.4773 12.6289 69.4773 12.5563V12.0102C69.4773 11.9361 69.4773 11.8432 69.4773 11.7287C69.4773 11.6137 69.4773 11.5357 69.4773 11.4939C69.4656 11.35 69.4854 11.2052 69.5355 11.07C69.5585 11.0349 69.5907 11.0074 69.6286 10.9896C69.6665 10.9718 69.7086 10.9651 69.7501 10.9699H69.8065V10.826C69.7083 10.826 69.6246 10.8371 69.53 10.839C69.4354 10.841 69.3627 10.839 69.2899 10.839C69.2172 10.839 69.119 10.839 69.0298 10.839C68.9407 10.839 68.8479 10.839 68.7606 10.826V10.9699H68.817C68.8596 10.9646 68.9027 10.9709 68.9423 10.9872C68.9818 11.0041 69.0164 11.0305 69.0426 11.0647C69.0958 11.2264 69.1156 11.3972 69.1008 11.5665V12.1357H68.6897H67.8002H67.5183V11.5338C67.5038 11.3731 67.5237 11.2115 67.5765 11.0589C67.6038 11.0262 67.639 11.0007 67.6787 10.9853C67.7185 10.9699 67.7616 10.9646 67.8039 10.9699H67.8585V10.826C67.7675 10.826 67.6766 10.8371 67.5911 10.839C67.5056 10.841 67.4092 10.839 67.3346 10.839C67.26 10.839 67.1818 10.839 67.0927 10.839C67.0035 10.839 66.9108 10.839 66.8126 10.826V10.9699H66.8671C66.9098 10.9651 66.9531 10.9723 66.992 10.9906C67.0308 11.0089 67.0638 11.0378 67.0872 11.0738C67.1376 11.2216 67.1574 11.3779 67.1454 11.5338C67.1454 11.5718 67.1454 11.643 67.1454 11.7484C67.1454 11.8538 67.1454 11.9414 67.1454 12.0102V12.5563C67.1454 12.6289 67.1454 12.7232 67.1454 12.8382C67.1454 12.9527 67.1454 13.0326 67.1454 13.0764C67.157 13.2251 67.1372 13.3742 67.0872 13.5147C67.0643 13.5503 67.0319 13.5787 66.9936 13.5965C66.9553 13.6148 66.9128 13.6215 66.8708 13.6167H66.8017V13.7567L67.1018 13.7457L67.3455 13.7274ZM73.257 13.7822C73.3286 13.7818 73.3999 13.7736 73.4698 13.7582C73.534 13.7413 73.5953 13.7149 73.6517 13.6802C73.7145 13.6408 73.7719 13.5941 73.8227 13.5402C73.8815 13.4738 73.9344 13.4026 73.9809 13.3271L74.4557 12.5577C74.5484 12.5688 74.6376 12.5741 74.7285 12.576C74.8194 12.5779 74.9013 12.576 74.9813 12.576V13.1452C74.9823 13.2289 74.9775 13.3122 74.9668 13.3944C74.9618 13.445 74.9449 13.4936 74.9177 13.5364C74.8942 13.5686 74.86 13.5912 74.8213 13.6004C74.7699 13.6114 74.7174 13.6162 74.6648 13.6148H74.6121V13.749L74.9104 13.7385H75.1578H75.3906L75.6907 13.749V13.609H75.6198C75.5753 13.6105 75.531 13.6033 75.4888 13.5893C75.4521 13.5744 75.4223 13.5465 75.4051 13.5109C75.3798 13.4599 75.3644 13.4041 75.3597 13.3473C75.3498 13.2544 75.3456 13.1606 75.3469 13.0673V12.9306C75.3469 12.8998 75.3469 12.8652 75.3469 12.8291C75.3469 12.7925 75.3469 12.7579 75.3469 12.7218V11.8778C75.3469 11.8249 75.3469 11.772 75.3469 11.7195C75.3469 11.6666 75.3469 11.6195 75.3469 11.5738V11.4847C75.3456 11.3943 75.3498 11.3038 75.3597 11.2139C75.3651 11.158 75.3811 11.1037 75.407 11.0536C75.4247 11.0195 75.4545 10.9925 75.4906 10.9791C75.5322 10.9651 75.576 10.9593 75.6198 10.9608H75.6743L75.6616 10.8135C75.5706 10.8135 75.4797 10.8246 75.3924 10.828H75.1287C75.0905 10.828 75.0413 10.828 74.9868 10.828H74.8213H74.6667H74.5575C74.3973 10.8246 74.2377 10.8496 74.0864 10.9025C73.9618 10.9444 73.8467 11.0103 73.7481 11.0974C73.6607 11.1725 73.5911 11.2663 73.5444 11.3722C73.4999 11.4703 73.477 11.5771 73.4771 11.6849C73.4751 11.7855 73.4899 11.8855 73.5207 11.9813C73.548 12.0636 73.5892 12.1406 73.6426 12.2089C73.6931 12.2734 73.7547 12.3287 73.8245 12.3725C73.8941 12.4182 73.9693 12.4547 74.0482 12.4817L73.6844 13.0379C73.6026 13.1616 73.5298 13.2636 73.4698 13.3454C73.4186 13.4132 73.3627 13.4767 73.3024 13.5364C73.2607 13.5763 73.2128 13.6085 73.1606 13.6331C73.117 13.6494 73.0708 13.6581 73.0242 13.6581H73.0042V13.7765L73.1297 13.7909L73.257 13.7822ZM74.0191 12.0997C73.9779 12.0448 73.9465 11.9832 73.9264 11.9178C73.9016 11.8331 73.8899 11.7455 73.8918 11.6575C73.8904 11.5685 73.9097 11.4799 73.9482 11.3991C73.9842 11.3231 74.0371 11.2557 74.1028 11.2028C74.1745 11.1455 74.2567 11.1032 74.3447 11.0772C74.4447 11.0455 74.5491 11.0301 74.6539 11.032C74.709 11.0291 74.7643 11.0291 74.8194 11.032C74.8722 11.032 74.9249 11.0445 74.9758 11.0536C74.9758 11.1157 74.9758 11.1739 74.9758 11.2355C74.9758 11.2976 74.9758 11.35 74.9758 11.4174C74.9758 11.4847 74.9758 11.5357 74.9758 11.5993V11.8047C74.9758 11.8778 74.9758 11.9596 74.9758 12.0467V12.3378L74.8667 12.3542C74.816 12.36 74.765 12.3633 74.714 12.3633C74.6466 12.3633 74.5793 12.3633 74.5121 12.3542C74.4466 12.3474 74.382 12.334 74.3192 12.3142C74.2591 12.2955 74.2016 12.2695 74.1483 12.2358C74.0959 12.2017 74.0502 12.1579 74.0137 12.1069L74.0191 12.0997Z" fill="black"/>
</svg>
